<?xml version="1.0" standalone="no"?>
<!DOCTYPE svg PUBLIC "-//W3C//DTD SVG 1.1//EN" "http://www.w3.org/Graphics/SVG/1.1/DTD/svg11.dtd" >
<svg xmlns="http://www.w3.org/2000/svg">
<metadata>Generated by IcoMoon</metadata>
<defs>
<font id="icomoon" horiz-adv-x="1024">
<font-face units-per-em="1024" ascent="960" descent="-64" />
<missing-glyph horiz-adv-x="1024" />
<glyph unicode="&#x20;" horiz-adv-x="512" d="" />
<glyph unicode="&#xe900;" glyph-name="Closing-Services" horiz-adv-x="1251" d="M208.943 481.323c-64.288 0-116.405 52.116-116.405 116.405s52.116 116.405 116.405 116.405c64.288 0 116.405-52.116 116.405-116.405v0c-0.064-64.263-52.142-116.34-116.398-116.405h-0.006zM208.943 666.287c-37.864 0-68.559-30.695-68.559-68.559s30.695-68.559 68.559-68.559c37.864 0 68.559 30.695 68.559 68.559v0c0 37.864-30.695 68.559-68.559 68.559v0zM359.233 219.919h-300.58c0 0 0 0 0 0-32.353 0-58.588 26.196-58.652 58.534v23.197c0.064 83.412 67.666 151.014 151.072 151.078h115.623c83.435-0.064 151.063-67.652 151.191-151.066v-23.203c-0.064-32.345-26.299-58.54-58.652-58.54 0 0 0 0 0 0v0zM151.078 404.883c-56.988-0.064-103.169-46.245-103.233-103.227v-23.197c0-6.217 5.040-11.258 11.258-11.258v0h300.58c6.217 0 11.258 5.040 11.258 11.258v0 23.191c-0.128 57.002-46.335 103.169-103.34 103.233h-0.006zM1042.012 481.323c-64.288 0-116.405 52.116-116.405 116.405s52.116 116.405 116.405 116.405c64.288 0 116.405-52.116 116.405-116.405v0c-0.064-64.263-52.142-116.34-116.398-116.405h-0.006zM1042.012 666.287c-37.864 0-68.559-30.695-68.559-68.559s30.695-68.559 68.559-68.559c37.864 0 68.559 30.695 68.559 68.559v0c0 37.864-30.695 68.559-68.559 68.559v0zM1192.303 219.919h-300.58c0 0 0 0 0 0-32.353 0-58.588 26.196-58.652 58.534v23.197c0.064 83.412 67.666 151.014 151.072 151.078h115.623c83.435-0.064 151.063-67.652 151.191-151.066v-23.203c-0.064-32.345-26.299-58.54-58.652-58.54 0 0 0 0 0 0v0zM984.148 404.883c-56.988-0.064-103.169-46.245-103.233-103.227v-23.197c0-6.217 5.040-11.258 11.258-11.258v0h300.58c6.217 0 11.258 5.040 11.258 11.258v0 23.191c-0.128 57.002-46.335 103.169-103.34 103.233h-0.006zM948.573 764.116l-2.252-1.238c-2.994-1.445-6.511-2.29-10.226-2.29-7.056 0-13.4 3.047-17.788 7.898l-0.018 0.021c-111.113 123.947-240.352 168.415-383.887 131.152-72.217-20.050-135.028-53.091-188.845-96.778l0.954 0.75c-4.008-3.12-9.114-5.003-14.659-5.003-13.243 0-23.979 10.736-23.979 23.979 0 6.668 2.722 12.7 7.115 17.047l0.002 0.002c57.739 47.499 126.535 83.934 201.779 104.895l3.899 0.927c99.405 25.78 241.59 28.257 380.735-92.989l-10.695 69.010c-0.374 1.587-0.589 3.409-0.589 5.281 0 13.243 10.736 23.979 23.979 23.979 12.526 0 22.81-9.605 23.886-21.852l0.006-0.091 21.727-140.721c0.182-1.104 0.285-2.376 0.285-3.672 0-8.564-4.532-16.069-11.328-20.248l-0.103-0.059zM943.845 763.328c-3.581-2.226-7.927-3.546-12.58-3.546-1.002 0-1.989 0.061-2.959 0.18l0.116-0.012-138.132 16.999c-12.022 1.51-21.23 11.669-21.23 23.979 0 13.341 10.815 24.157 24.157 24.157 1.032 0 2.048-0.065 3.046-0.19l-0.119 0.012 138.245-17.449c11.932-1.438 21.091-11.501 21.091-23.704 0-8.619-4.569-16.171-11.418-20.366l-0.104-0.059zM318.255 131.884l2.364 1.238c2.965 1.413 6.444 2.238 10.115 2.238 7.295 0 13.829-3.257 18.227-8.397l0.027-0.033c111.113-123.835 240.352-168.865 383.887-131.152 72.174 20.069 134.944 53.106 188.731 96.777l-0.953-0.749c4.33 4.284 10.287 6.93 16.862 6.93 13.243 0 23.979-10.736 23.979-23.979 0-7.698-3.627-14.548-9.266-18.936l-0.054-0.040c-57.705-47.524-126.459-83.993-201.664-105.004l-3.901-0.931c-99.518-26.118-241.59-28.144-380.735 93.101l10.582-69.010c0.374-1.587 0.589-3.409 0.589-5.281 0-13.243-10.736-23.979-23.979-23.979-12.526 0-22.81 9.605-23.886 21.852l-0.006 0.091-21.615 140.721c-0.273 1.349-0.43 2.899-0.43 4.486 0 8.419 4.401 15.81 11.027 19.998l0.097 0.057zM323.096 132.672c3.474 2.188 7.7 3.486 12.228 3.486 1.127 0 2.235-0.080 3.319-0.236l-0.124 0.015 138.019-16.887c11.197-2.167 19.537-11.892 19.537-23.564 0-13.243-10.736-23.979-23.979-23.979-0.457 0-0.911 0.013-1.362 0.038l0.063-0.003-138.132 16.999c-11.932 1.438-21.091 11.501-21.091 23.704 0 8.619 4.569 16.171 11.418 20.366l0.104 0.059zM613.77 372.686c-0.016 0-0.035 0-0.055 0-7.356 0-13.927 3.359-18.263 8.628l-0.033 0.041-84.433 101.319c-3.452 4.115-5.548 9.468-5.548 15.31 0 13.199 10.7 23.898 23.898 23.898 7.356 0 13.936-3.324 18.32-8.551l0.030-0.037 84.433-101.319c3.437-4.12 5.524-9.472 5.524-15.311 0-13.206-10.676-23.919-23.869-23.979h-0.006zM613.77 372.686c-13.218 0.034-23.92 10.756-23.92 23.979 0 6.047 2.238 11.571 5.931 15.789l-0.024-0.028 123.835 140.721c4.401 4.996 10.812 8.131 17.956 8.131 13.195 0 23.892-10.697 23.892-23.892 0-6.051-2.25-11.577-5.959-15.787l0.023 0.026-123.835-140.721c-4.365-5.029-10.76-8.197-17.896-8.218h-0.004z" />
<glyph unicode="&#xe901;" glyph-name="Communications" horiz-adv-x="1337" d="M1311.145-9.385c-2.226 0.003-4.386 0.282-6.449 0.806l0.181-0.039-1101.894 275.505c-11.186 2.896-19.314 12.9-19.314 24.801 0 0.004 0 0.009 0 0.013v-0.001 367.213c0 0.004 0 0.008 0 0.012 0 11.902 8.128 21.905 19.136 24.762l0.178 0.039 1101.638 275.505c1.889 0.499 4.057 0.786 6.292 0.786 5.947 0 11.419-2.029 15.763-5.433l-0.056 0.042c6.126-4.688 10.051-11.985 10.104-20.2v-918.232c0-0.011 0-0.024 0-0.038 0-8.17-3.83-15.446-9.793-20.129l-0.055-0.042c-4.284-3.35-9.748-5.372-15.684-5.372-0.017 0-0.034 0-0.051 0h0.003zM235.088 311.526l1049.965-262.459s0 0 0 0v852.097s0 0 0 0l-1049.965-262.075s0 0 0 0v-327.179s-0.128-0.384 0-0.384zM76.742 154.204c-0.081 0-0.177 0-0.273 0-15.981 0-30.848 4.774-43.251 12.973l0.293-0.182c-20.407 14.569-33.552 38.169-33.552 64.84 0 0.902 0.015 1.801 0.045 2.696l-0.003-0.13v481.687c-0.012 0.506-0.018 1.102-0.018 1.7 0 26.751 13.246 50.409 33.537 64.771l0.248 0.166c12.042 8.229 26.919 13.14 42.943 13.14 21.191 0 40.377-8.589 54.264-22.477v0l96.184-96.312c4.738-4.646 7.674-11.114 7.674-18.268 0-0.008 0-0.015 0-0.023v0.001-366.957c0-0.044 0-0.097 0-0.149 0-7.154-2.937-13.622-7.671-18.265l-96.188-96.188c-13.808-14.080-32.979-22.858-54.2-23.023h-0.031zM76.742 744.61c-0.009 0-0.021 0-0.032 0-14.128 0-25.581-11.453-25.581-25.581 0-0.45 0.012-0.897 0.035-1.341l-0.003 0.062v-484.756c-0.012-0.297-0.019-0.646-0.019-0.997 0-7.934 3.456-15.061 8.945-19.956l0.026-0.023c4.433-3.787 10.232-6.091 16.568-6.091 7.067 0 13.464 2.865 18.093 7.498l88.766 88.766s0 0 0 0v345.341s0 0 0 0l-88.765 89.661c-4.622 4.585-10.987 7.418-18.014 7.418-0.007 0-0.014 0-0.022 0h0.001zM765.89-64c-8.547 0.004-16.831 1.124-24.717 3.221l0.671-0.152-217.437 54.615c-42.735 11.005-73.803 49.198-73.803 94.647 0 8.45 1.074 16.65 3.093 24.469l-0.148-0.677 27.499 106.032c2.813 12.056 13.469 20.9 26.19 20.9 1.092 0 2.169-0.065 3.228-0.192l-0.128 0.012c12.317-1.989 21.61-12.545 21.61-25.271 0-2.2-0.278-4.334-0.8-6.371l0.039 0.177-27.116-107.184c-1.1-3.834-1.732-8.239-1.732-12.79s0.632-8.956 1.814-13.129l-0.082 0.339c4.867-15.485 17.275-27.259 32.81-31.141l0.317-0.067 215.774-54.487c3.928-1.156 8.442-1.821 13.11-1.821s9.182 0.665 13.45 1.906l-0.34-0.085c15.346 4.837 27.036 17.077 31.010 32.424l0.070 0.32 26.988 106.928c2.827 12.113 13.533 20.999 26.315 20.999 1.003 0 1.993-0.055 2.968-0.161l-0.12 0.011c12.332-1.976 21.641-12.539 21.641-25.276 0-2.244-0.289-4.421-0.832-6.495l0.040 0.178-26.732-106.032c-4.901-19.702-15.145-36.547-29.095-49.438l-0.067-0.061c-17.101-16.076-40.101-26.048-65.427-26.348l-0.060-0.001zM1118.009 38.067c-10.304 3.735-17.534 13.438-17.534 24.83 0 0.264 0.004 0.527 0.012 0.789l-0.001-0.038v823.191c-0.004 0.17-0.006 0.371-0.006 0.572 0 11.437 7.217 21.188 17.345 24.949l0.184 0.060c2.257 0.722 4.853 1.139 7.547 1.139 14.078 0 25.501-11.373 25.58-25.433v-825.629c-0.007-14.122-11.457-25.568-25.581-25.568-2.693 0-5.289 0.416-7.728 1.188l0.181-0.049zM429.758 541.242c-0.098-0.001-0.213-0.002-0.329-0.002-12.683 0-23.211 9.231-25.231 21.341l-0.021 0.149c-0.115 0.935-0.181 2.018-0.181 3.116 0 12.906 9.102 23.686 21.238 26.27l0.176 0.031 459.815 107.695c1.843 0.475 3.959 0.747 6.138 0.747 12.857 0 23.499-9.486 25.309-21.841l0.017-0.139c0.088-0.814 0.138-1.759 0.138-2.715 0-12.936-9.145-23.736-21.323-26.289l-0.175-0.031-459.687-107.695c-1.758-0.383-3.786-0.614-5.864-0.639h-0.019z" />
<glyph unicode="&#xe902;" glyph-name="Digital-Locker" horiz-adv-x="975" d="M567.379 524.731h-431.615c-12.612 0-22.837 10.224-22.837 22.837s10.224 22.837 22.837 22.837v0h431.615c12.612 0 22.837-10.224 22.837-22.837s-10.224-22.837-22.837-22.837v0zM575.144 391.936h-448.171c-12.612 0-22.837 10.224-22.837 22.837s10.224 22.837 22.837 22.837v0h448.171c12.612 0 22.837-10.224 22.837-22.837s-10.224-22.837-22.837-22.837v0zM567.379 391.936h-431.615c-12.612 0-22.837 10.224-22.837 22.837s10.224 22.837 22.837 22.837v0h431.615c12.612 0 22.837-10.224 22.837-22.837s-10.224-22.837-22.837-22.837v0zM575.144 259.14h-448.171c-12.612 0-22.837 10.224-22.837 22.837s10.224 22.837 22.837 22.837v0h448.171c12.612 0 22.837-10.224 22.837-22.837s-10.224-22.837-22.837-22.837v0zM567.379 259.14h-431.615c-12.612 0-22.837 10.224-22.837 22.837s10.224 22.837 22.837 22.837v0h431.615c12.612 0 22.837-10.224 22.837-22.837s-10.224-22.837-22.837-22.837v0zM900.682 114.241h-826.12c-41.167 0.13-74.497 33.5-74.562 74.67v564.759c0.065 41.153 33.409 74.497 74.556 74.562h212.502c0.016 0 0.034 0 0.053 0 28.098 0 52.598-15.4 65.522-38.22l0.195-0.374 43.961-79.015c5.164-9.051 14.712-15.079 25.676-15.186h478.217c41.153-0.065 74.497-33.409 74.562-74.556v-431.963c-0.065-41.176-33.395-74.546-74.55-74.676h-0.012zM74.562 782.558c-15.955 0-28.888-12.934-28.888-28.888v0-564.753c0 0 0 0 0 0 0-15.978 12.92-28.938 28.882-29.002h826.126c15.969 0.065 28.888 13.025 28.888 29.002 0 0 0 0 0 0v0 431.957c0 15.955-12.934 28.888-28.888 28.888v0h-478.202c-28.139 0.004-52.67 15.453-65.575 38.332l-0.195 0.376-43.961 78.901c-5.201 9.116-14.852 15.166-25.917 15.186h-0.003zM819.154 649.763c-12.612 0-22.837 10.224-22.837 22.837v0 109.845l-131.768 131.882h-456.735c-16.018 0-29.003-12.985-29.003-29.003v0c-0.913-37.224-0.913-60.517-0.913-73.078 0-12.612-10.224-22.837-22.837-22.837s-22.837 10.224-22.837 22.837v0c0 12.789 0 36.425 0.913 73.649 0.323 40.996 33.632 74.105 74.674 74.105 0.001 0 0.001 0 0.002 0h465.87c0.005 0 0.012 0 0.018 0 6.33 0 12.059-2.575 16.195-6.736l0.001-0.001 145.47-145.128c4.093-4.126 6.623-9.809 6.623-16.082 0-0.046 0-0.093 0-0.139v0.007-119.322c0-12.612-10.224-22.837-22.837-22.837v0zM488.25-64c-38.468 0-69.652 31.184-69.652 69.652s31.184 69.652 69.652 69.652c38.468 0 69.652-31.184 69.652-69.652 0-0.040 0-0.080 0-0.121v0.006c0 0 0 0 0 0 0-38.405-31.133-69.538-69.538-69.538-0.040 0-0.080 0-0.12 0h0.006zM488.25 29.517c-13.243 0-23.979-10.736-23.979-23.979s10.736-23.979 23.979-23.979c13.243 0 23.979 10.736 23.979 23.979v0c0 13.243-10.736 23.979-23.979 23.979v0zM441.549-17.299h-255.886c-12.612 0-22.837 10.224-22.837 22.837s10.224 22.837 22.837 22.837v0h255.886c12.612 0 22.837-10.224 22.837-22.837s-10.224-22.837-22.837-22.837v0zM787.868-17.299h-252.803c-12.612 0-22.837 10.224-22.837 22.837s10.224 22.837 22.837 22.837v0h252.803c12.612 0 22.837-10.224 22.837-22.837s-10.224-22.837-22.837-22.837v0zM489.392 29.517c-12.612 0-22.837 10.224-22.837 22.837v0 61.888c0 12.612 10.224 22.837 22.837 22.837s22.837-10.224 22.837-22.837v0-61.888c0-12.612-10.224-22.837-22.837-22.837v0zM819.154 769.085h-92.717c-0.068 0-0.148 0-0.228 0-41.581 0-75.296 33.675-75.361 75.241v92.837c-0.001 0.075-0.001 0.164-0.001 0.253 0 12.612 10.224 22.837 22.837 22.837 6.455 0 12.284-2.678 16.437-6.983l145.249-145.135c4.172-4.139 6.755-9.875 6.755-16.214 0-12.612-10.224-22.837-22.837-22.837-0.047 0-0.093 0-0.14 0h0.007zM696.521 882.012v-37.681c0.129-16.321 13.358-29.509 29.682-29.574h37.572zM871.679 190.516h-197.995c-12.612 0-22.837 10.224-22.837 22.837v0 143.872c0 12.612 10.224 22.837 22.837 22.837v0h197.995c12.612 0 22.837-10.224 22.837-22.837v0-143.872c0-12.612-10.224-22.837-22.837-22.837v0zM696.521 236.189h152.321v98.198h-152.321zM724.382 333.93c-12.612 0-22.837 10.224-22.837 22.837v0 61.317c-0.001 0.103-0.001 0.225-0.001 0.347 0 41.529 33.44 75.248 74.863 75.699h0.043c0.001 0 0.001 0 0.002 0 41.546 0 75.264-33.518 75.587-74.988v-0.031l0.685-61.317c0-12.612-10.224-22.837-22.837-22.837v0 0c-12.612 0-22.837 10.224-22.837 22.837v0l-0.685 61.317c0 16.522-13.394 29.916-29.916 29.916s-29.916-13.394-29.916-29.916v0-61.317c0-12.612-10.224-22.837-22.837-22.837v0z" />
<glyph unicode="&#xe903;" glyph-name="Document-Processing" horiz-adv-x="826" d="M496.795 774.71h-348.127c-12.039 0-21.799 9.76-21.799 21.799s9.76 21.799 21.799 21.799v0h348.127c12.039 0 21.799-9.76 21.799-21.799s-9.76-21.799-21.799-21.799v0zM503.008 633.018h-361.316c-12.039 0-21.799 9.76-21.799 21.799s9.76 21.799 21.799 21.799v0h361.316c12.039 0 21.799-9.76 21.799-21.799s-9.76-21.799-21.799-21.799v0zM685.246 633.018h-536.578c-12.039 0-21.799 9.76-21.799 21.799s9.76 21.799 21.799 21.799v0h536.578c12.039 0 21.799-9.76 21.799-21.799s-9.76-21.799-21.799-21.799v0zM742.577-64.545h-658.979c-0.791-0.028-1.72-0.043-2.653-0.043-43.859 0-79.575 34.866-80.942 78.394l-0.003 0.126v790.753c0 13.624 0 38.911 1.090 79.021 0 41.963 37.167 76.296 82.836 76.296h549.33c5.634-0.015 10.762-2.165 14.623-5.683l-0.017 0.016 171.121-155.317c4.413-3.994 7.178-9.738 7.194-16.128v-768.957c-1.37-43.653-37.086-78.519-80.945-78.519-0.933 0-1.862 0.016-2.788 0.047l0.135-0.004zM83.925 916.402c-0.789 0.060-1.708 0.095-2.635 0.095-19.207 0-34.97-14.742-36.593-33.528l-0.010-0.137c-1.090-39.892-1.090-64.525-1.090-78.149v-790.753c1.363-19.591 17.59-34.968 37.409-34.968 0.912 0 1.817 0.033 2.712 0.097l-0.12-0.007h658.979c0.775-0.057 1.68-0.090 2.592-0.090 19.819 0 36.046 15.376 37.402 34.85l0.007 0.118v759.362l-157.715 143.109zM804.377 761.086h-108.994c-0.894-0.035-1.944-0.056-2.998-0.056-43.672 0-79.27 34.569-80.923 77.836l-0.005 0.15v99.185c0.029 12.017 9.778 21.747 21.799 21.747 5.627 0 10.757-2.132 14.624-5.633l-0.019 0.017 171.121-155.317c4.392-4.002 7.137-9.746 7.137-16.131 0-12.019-9.727-21.766-21.739-21.799h-0.003zM655.055 888.936v-49.919c1.636-19.344 17.741-34.426 37.368-34.426 0.926 0 1.845 0.034 2.754 0.1l-0.122-0.007h52.862zM710.969 240.639h-595.762c0 0 0 0 0 0-13.446 0-24.353 10.869-24.414 24.3v255.924c0 13.484 10.931 24.415 24.415 24.415h595.762c13.484 0 24.415-10.931 24.415-24.415v0-256.027c-0.123-13.39-11.007-24.197-24.414-24.197 0 0-0.001 0-0.001 0v0zM134.39 284.236h557.396v217.988h-557.396zM609.604 7.064c-63.326 0-114.88 47.739-114.88 106.378s51.554 106.269 114.88 106.269 114.989-47.63 114.989-106.269-51.554-106.378-114.989-106.378zM609.604 176.114c-39.347 0-71.282-28.12-71.282-62.672s31.935-62.781 71.282-62.781 71.391 28.12 71.391 62.781-32.044 62.672-71.391 62.672zM609.604 77.147c-4.983 0.008-9.573 1.687-13.24 4.507l0.051-0.038-24.742 18.747c-5.268 4.026-8.633 10.312-8.633 17.385 0 12.051 9.77 21.821 21.821 21.821 4.979 0 9.569-1.668 13.241-4.475l-0.053 0.039 11.444-8.72 114.553 88.503c3.73 3.076 8.558 4.942 13.822 4.942 12.039 0 21.799-9.76 21.799-21.799 0-7.193-3.484-13.573-8.857-17.543l-0.059-0.042-127.741-98.531c-3.64-2.94-8.307-4.739-13.394-4.796h-0.013zM566.77 306.035c-1.674-0.105-3.63-0.164-5.6-0.164-30.99 0-58.532 14.765-75.975 37.644l-0.17 0.233c-22.253-23.303-53.566-37.791-88.262-37.791-1.541 0-3.076 0.029-4.604 0.085l0.221-0.006c-26.127 2.033-49.701 11.55-68.969 26.383l0.303-0.224c-24.788-15.634-54.824-25.133-87.037-25.72l-0.159-0.002c-1.875-0.129-4.064-0.202-6.269-0.202-23.467 0-44.993 8.305-61.802 22.135l0.168-0.134-2.725 1.962c-5.523 4.011-9.072 10.446-9.072 17.712 0 12.053 9.771 21.825 21.825 21.825 4.788 0 9.217-1.542 12.815-4.157l-0.063 0.044 3.052-2.289c9.887-8.661 22.922-13.944 37.191-13.944 1.718 0 3.419 0.077 5.098 0.227l-0.217-0.016c19.044 0.284 36.931 4.964 52.777 13.067l-0.677-0.315c-19.292 21.799-32.698 45.56-32.698 66.595-0.004 0.217-0.006 0.473-0.006 0.73 0 15.474 7.751 29.137 19.583 37.319l0.151 0.099c12.033 7.411 26.613 11.801 42.219 11.801 1.674 0 3.336-0.051 4.984-0.15l-0.227 0.011c1.372 0.080 2.976 0.126 4.59 0.126 16.614 0 32.098-4.84 45.118-13.188l-0.334 0.2c12.395-8.766 20.389-23.042 20.389-39.185 0-0.287-0.003-0.573-0.008-0.859l0.001 0.043c-2.467-26.076-14.549-48.937-32.614-65.321l-0.084-0.075c9.307-5.968 20.457-9.893 32.439-10.882l0.259-0.017c55.478 0 72.154 37.93 76.296 49.592 2.949 8.781 11.104 14.994 20.71 14.994 0.96 0 1.906-0.062 2.834-0.183l-0.109 0.012c10.199-1.28 18.143-9.449 19.068-19.643l0.006-0.085c1.090-7.194 6.322-44.688 55.587-44.688 32.044 0 36.186 3.379 45.342 10.899 3.678 2.925 8.39 4.694 13.515 4.694 12.043 0 21.806-9.763 21.806-21.806 0-6.918-3.221-13.083-8.246-17.078l-0.045-0.034c-16.785-13.406-29.537-20.273-72.372-20.273zM322.841 435.629c-16.458 0-22.344-3.706-22.889-4.578s-0.872-7.303 6.649-19.946c5.517-8.812 11.634-16.454 18.525-23.321l0.004-0.004c14.823 13.842 23.652 28.556 23.652 38.148 0.035 0.214 0.056 0.46 0.056 0.712 0 1.619-0.84 3.041-2.108 3.855l-0.018 0.011c-5.925 3.307-12.998 5.254-20.526 5.254-1.177 0-2.342-0.048-3.495-0.141l0.152 0.010z" />
<glyph unicode="&#xe904;" glyph-name="Financing-Readiness" horiz-adv-x="1038" d="M491.869-63.751h-337.428c-0.074 0-0.162 0-0.25 0-84.983 0-153.908 68.75-154.191 153.667v715.767c0 0.037 0 0.081 0 0.125 0 85.027 68.821 153.979 153.798 154.192h531.777c0.037 0 0.081 0 0.125 0 85.001 0 153.925-68.836 154.067-153.805v-310.268c-0.928-12.454-11.26-22.207-23.87-22.207s-22.943 9.753-23.866 22.127l-0.005 0.079v310.129c-0.071 58.669-47.648 106.202-106.326 106.202-0.044 0-0.088 0-0.132 0h-531.875c-58.669-0.071-106.202-47.648-106.202-106.326 0 0 0 0 0 0v0-715.74c0.071-58.669 47.648-106.202 106.326-106.202 0 0 0 0 0 0h337.926c13.149 0 23.808-10.659 23.808-23.808s-10.659-23.808-23.808-23.808v0zM484.764 112.38h-300.531c-13.149 0-23.808 10.659-23.808 23.808s10.659 23.808 23.808 23.808h300.531c12.454-0.928 22.207-11.26 22.207-23.87s-9.753-22.943-22.127-23.866l-0.079-0.005zM484.764 224.565h-300.531c-13.149 0-23.808 10.659-23.808 23.808s10.659 23.808 23.808 23.808h300.531c12.454-0.928 22.207-11.26 22.207-23.87s-9.753-22.943-22.127-23.866l-0.079-0.005zM484.764 342.858h-300.531c-13.149 0-23.808 10.659-23.808 23.808s10.659 23.808 23.808 23.808h300.531c12.454-0.928 22.207-11.26 22.207-23.87s-9.753-22.943-22.127-23.866l-0.079-0.005zM669.869 460.652h-486.135c-13.213 0-12.465 10.595-12.465 23.808s0 23.808 12.465 23.808h486.135c12.454-0.928 22.207-11.26 22.207-23.87s-9.753-22.943-22.127-23.866l-0.079-0.005zM799.505-61.133c-0.37-0.002-0.808-0.003-1.246-0.003-132.659 0-240.201 107.541-240.201 240.201s107.541 240.201 240.201 240.201c132.659 0 240.201-107.541 240.201-240.201 0-0.043 0-0.085 0-0.128v0.007c0-0.075 0-0.163 0-0.251 0-132.146-106.877-239.329-238.907-239.825h-0.047zM799.505 371.527c-0.37 0.003-0.808 0.004-1.247 0.004-106.361 0-192.584-86.223-192.584-192.584s86.223-192.584 192.584-192.584c106.36 0 192.582 86.221 192.584 192.58v0c0 0.112 0 0.244 0 0.376 0 105.848-85.559 191.713-191.291 192.208h-0.047zM779.811 73.863c-0.019 0-0.041 0-0.064 0-7.331 0-13.884 3.331-18.229 8.562l-0.031 0.039-84.139 100.967c-3.415 4.092-5.489 9.408-5.489 15.207 0 13.151 10.661 23.812 23.812 23.812 7.351 0 13.925-3.331 18.293-8.567l0.031-0.038 83.765-101.465c3.503-4.103 5.634-9.47 5.634-15.334 0-13.080-10.603-23.684-23.684-23.684-0.096 0-0.192 0.001-0.288 0.002h0.015zM779.811 73.863c-0.061-0.001-0.133-0.001-0.205-0.001-5.955 0-11.392 2.221-15.526 5.881l0.025-0.021c-4.972 4.385-8.092 10.77-8.092 17.884 0 6.061 2.265 11.593 5.995 15.796l-0.021-0.025 123.030 140.231c4.395 5.175 10.907 8.437 18.181 8.437 13.149 0 23.808-10.659 23.808-23.808 0-6.188-2.361-11.825-6.231-16.059l0.016 0.018-123.030-140.231c-4.407-4.979-10.813-8.102-17.949-8.102 0 0 0 0 0 0v0zM288.939 461.4h-103.709c-12.794 0.345-23.051 10.732-23.185 23.546v159.814c0 0.037 0 0.081 0 0.125 0 13.080 10.603 23.684 23.684 23.684 0.044 0 0.088 0 0.132 0h103.702c0.037 0 0.081 0 0.125 0 13.149 0 23.808-10.659 23.808-23.808 0 0 0 0 0 0v0-159.801c-0.206-13.059-10.841-23.567-23.93-23.567-0.22 0-0.44 0.003-0.658 0.009l0.032-0.001zM209.038 508.767h56.093v112.185h-56.093zM479.653 461.4h-103.709c0 0 0 0 0 0-13.149 0-23.808 10.659-23.808 23.808 0 0.044 0 0.088 0 0.131v-0.007 232.348c0 0.037 0 0.081 0 0.125 0 13.080 10.603 23.684 23.684 23.684 0.044 0 0.088 0 0.132 0h103.702c0.037 0 0.081 0 0.125 0 13.149 0 23.808-10.659 23.808-23.808 0 0 0 0 0 0v0-232.722c-0.211-13.056-10.844-23.559-23.93-23.559-0.001 0-0.002 0-0.003 0v0zM399.753 508.767h56.093v185.105h-56.093zM670.368 461.4h-103.709c0 0 0 0 0 0-13.149 0-23.808 10.659-23.808 23.808 0 0.044 0 0.088 0 0.131v-0.007 300.157c0 0.037 0 0.081 0 0.125 0 13.080 10.603 23.684 23.684 23.684 0.044 0 0.088 0 0.132 0h103.702c0.037 0 0.081 0 0.125 0 13.149 0 23.808-10.659 23.808-23.808 0 0 0 0 0 0v0-300.531c-0.211-13.056-10.844-23.559-23.93-23.559-0.001 0-0.002 0-0.003 0v0zM590.467 508.767h56.093v251.793h-56.093z" />
<glyph unicode="&#xe905;" horiz-adv-x="1085" d="M274.025 836.269c-0.11-0.002-0.24-0.003-0.371-0.003-12.702 0-22.998 10.297-22.998 22.998 0 8.617 4.739 16.128 11.754 20.067l0.116 0.060c185.941 101.193 320.367 106.252 535.516 20.009 8.585-3.497 14.527-11.777 14.527-21.446 0-12.754-10.339-23.094-23.094-23.094-3.086 0-6.030 0.605-8.721 1.703l0.154-0.056c-202.615 81.414-323.011 77.159-495.844-17.479-3.158-1.738-6.922-2.76-10.924-2.76-0.040 0-0.081 0-0.121 0h0.006z" />
<glyph unicode="&#xe906;" horiz-adv-x="1085" d="M166.623 613.415c-0.010 0-0.022 0-0.034 0-12.702 0-22.998 10.297-22.998 22.998 0 5.356 1.831 10.285 4.901 14.194l-0.038-0.050c6.67 8.509 164.438 208.94 383.382 208.94 252.981 0 390.971-188.241 397.181-196.176 2.713-3.73 4.34-8.402 4.34-13.454 0-12.717-10.309-23.026-23.026-23.026-7.665 0-14.455 3.745-18.64 9.505l-0.046 0.066c-1.265 1.725-130.86 177.087-359.809 177.087-196.636 0-344.975-189.276-346.93-191.116-4.246-5.478-10.827-8.969-18.224-8.969-0.021 0-0.042 0-0.063 0h0.003z" />
<glyph unicode="&#xe907;" horiz-adv-x="1085" d="M652.577 106.762c-131.090 0-217.794 172.487-237.228 250.337-12.879 50.021-4.715 97.628 21.618 130.63 16.099 20.583 47.147 45.192 103.492 45.192 86.359 0 135.345-75.090 174.557-135.46 21.848-33.463 44.387-68.075 64.395-73.48 5.84-1.669 12.548-2.629 19.48-2.629 19.103 0 36.503 7.29 49.571 19.239l-0.056-0.051c17.823 16.294 28.96 39.645 28.96 65.598 0 4.73-0.37 9.373-1.082 13.903l0.065-0.502c-13.224 97.053-110.622 296.103-327.266 296.103h-3.22c-230.788-2.070-305.533-203.075-305.533-300.128 0-68.995 42.547-160.298 43.007-160.988 1.416-2.911 2.243-6.332 2.243-9.947 0-12.798-10.374-23.172-23.172-23.172-9.183 0-17.118 5.342-20.868 13.087l-0.060 0.138c-1.955 4.14-47.377 101.193-47.377 180.882 0 111.887 85.899 343.825 351.184 346.125h3.565c247.002 0 357.854-225.843 372.803-335.89 0.868-5.738 1.363-12.359 1.363-19.096 0-40.032-17.499-75.978-45.266-100.604l-0.14-0.122c-20.992-18.998-48.965-30.625-79.654-30.625-11.267 0-22.167 1.567-32.496 4.495l0.838-0.203c-37.027 10.004-63.13 50.251-90.843 92.798-36.682 56.346-74.515 114.992-136.035 114.992-30.128 0-52.781-9.199-67.040-27.483-16.789-21.503-21.503-55.656-12.649-91.303 18.284-73.25 95.673-215.839 192.841-215.839 12.702 0 22.998-10.297 22.998-22.998s-10.297-22.998-22.998-22.998v0z" />
<glyph unicode="&#xe908;" horiz-adv-x="1085" d="M454.562 106.762c-5.109 0.017-9.823 1.698-13.63 4.528l0.061-0.044c-5.75 4.255-140.405 105.447-140.405 289.204 0 172.487 127.411 250.797 245.852 250.797 145.579 0 238.378-140.29 265.171-234.468 0.562-1.895 0.886-4.072 0.886-6.325 0-12.715-10.307-23.022-23.022-23.022-10.462 0-19.294 6.978-22.095 16.534l-0.041 0.163c-22.078 77.734-101.653 201.12-220.899 201.12-99.583 0-199.855-63.36-199.855-204.8 0-159.953 120.511-251.257 121.661-252.177 5.665-4.237 9.292-10.929 9.292-18.468 0-5.123-1.675-9.854-4.507-13.677l0.044 0.062c-4.221-5.73-10.936-9.41-18.511-9.429h-0.003z" />
<glyph unicode="&#xe909;" horiz-adv-x="1085" d="M789.532 186.797c-259.191 0-273.91 225.269-274.025 227.568-0.020 0.361-0.032 0.783-0.032 1.207 0 12.719 10.311 23.030 23.030 23.030 12.294 0 22.339-9.634 22.996-21.764l0.003-0.058c0-7.704 13.224-183.987 228.028-183.987 12.702 0 22.998-10.297 22.998-22.998s-10.297-22.998-22.998-22.998v0z" />
<glyph unicode="&#xe90a;" horiz-adv-x="1085" d="M956.155 393.322c30.371-0.065 54.966-24.701 54.966-55.081 0 0 0 0 0 0v0l51.056-324.161c0-30.42-24.661-55.081-55.081-55.081v0h-878.076c-0.034 0-0.075 0-0.115 0-30.357 0-54.966 24.609-54.966 54.966 0 0.040 0 0.081 0 0.121v-0.006l-50.941 465.371c0 0.034 0 0.075 0 0.115 0 30.357 24.609 54.966 54.966 54.966 0.040 0 0.081 0 0.121 0h156.613c0.010 0 0.022 0 0.033 0 20.836 0 39.004-11.427 48.578-28.355l0.144-0.278 46.687-83.944c9.747-17.21 27.935-28.636 48.792-28.636 0.19 0 0.379 0.001 0.568 0.003h-0.029z" />
<glyph unicode="&#xe90b;" horiz-adv-x="1085" d="M1007.096-64h-878.076c-42.617 0.057-77.241 34.197-78.078 76.621l-0.001 0.078-50.941 464.336c-0.029 0.378-0.045 0.82-0.045 1.265s0.016 0.886 0.048 1.323l-0.003-0.058c0.065 43.073 34.998 77.964 78.079 77.964 0 0 0 0 0 0h156.618c0.106 0.001 0.232 0.001 0.358 0.001 29.359 0 54.956-16.109 68.433-39.971l0.204-0.392 46.802-83.944c5.7-10.155 16.399-16.905 28.675-16.905 0.106 0 0.213 0.001 0.319 0.002h577.242c42.371-0.113 76.811-33.909 77.962-76.018l0.002-0.107 50.136-323.126c0.052-0.534 0.081-1.155 0.081-1.782s-0.029-1.248-0.087-1.861l0.006 0.078c-0.388-42.728-34.988-77.247-77.71-77.504h-0.025zM45.997 480.485l50.826-463.991c0.027-0.361 0.043-0.783 0.043-1.207s-0.016-0.846-0.046-1.263l0.003 0.056c0-17.719 14.364-32.083 32.083-32.083v0h878.191c17.121 0.041 31.088 13.486 31.964 30.395l0.003 0.078-50.596 321.976c-0.054 0.534-0.085 1.155-0.085 1.782s0.031 1.248 0.091 1.86l-0.006-0.077c0 0 0 0 0 0 0 17.678-14.298 32.017-31.961 32.082h-577.034c-0.106-0.001-0.232-0.001-0.358-0.001-29.359 0-54.956 16.109-68.433 39.971l-0.204 0.392-46.802 83.944c-5.665 10.283-16.433 17.134-28.801 17.134-0.062 0-0.125 0-0.187-0.001h-156.609c-0.005 0-0.011 0-0.017 0-17.355 0-31.491-13.78-32.065-30.995l-0.001-0.053zM1034.119 338.241v0z" />
<glyph unicode="&#xe90c;" horiz-adv-x="1085" d="M666.951 5.57c-0.056-0.001-0.123-0.001-0.189-0.001-2.485 0-4.871 0.421-7.091 1.197l0.151-0.046c-9.284 3.094-15.861 11.702-15.869 21.847v48.757h-261.491c-12.702 0-22.998 10.297-22.998 22.998v0c-0.92 60.716-1.61 135.23 0 146.039 2.028 10.799 11.384 18.862 22.623 18.862 0.132 0 0.264-0.001 0.395-0.003h261.471v47.492c0.008 10.146 6.584 18.754 15.707 21.801l0.162 0.047c2.119 0.711 4.559 1.122 7.095 1.122 7.587 0 14.315-3.673 18.504-9.339l0.044-0.063 104.182-141.555c2.768-3.752 4.429-8.466 4.429-13.569s-1.662-9.817-4.474-13.632l0.045 0.063-104.297-142.59c-4.199-5.7-10.864-9.372-18.389-9.429h-0.009zM405.115 123.321h261.836c12.702 0 22.998-10.297 22.998-22.998v0-1.38l52.666 72.1-52.666 71.64v-0.805c0-12.702-10.297-22.998-22.998-22.998v0h-262.296c-0.23-21.733 0-58.416 0.46-95.558z" />
<glyph unicode="&#xe90d;" glyph-name="Identity" horiz-adv-x="926" d="M40.159 311.985c-5.252 211.081 161.84 361.103 334.95 391.851 157.682 28.232 294.244-13.897 404.873-130.325 64.268-66.894 103.846-157.926 103.846-258.202 0-0.322 0-0.644-0.001-0.966v0.050c-0.772-81.778-65.501-148.189-146.534-151.652l-0.315-0.011c-3.494-0.28-7.564-0.44-11.671-0.44-78.342 0-143.114 58.101-153.578 133.564l-0.092 0.813c-1.852 23.125-7.389 44.496-16.037 64.192l0.498-1.273c-21.885 43.77-75.832 63.357-123.76 50.336-46.561-10.326-80.865-51.265-80.865-100.216 0-1.661 0.040-3.313 0.118-4.955l-0.009 0.232c1.094-144.441 101.875-273.563 249.161-317.333 6.94-1.642 12.82-3.52 18.504-5.783l-0.887 0.312c9.537-2.725 16.402-11.364 16.402-21.606 0-2.812-0.517-5.503-1.462-7.983l0.052 0.154c-2.397-9.682-11.010-16.746-21.273-16.746-2.9 0-5.667 0.564-8.2 1.588l0.147-0.052c-101.54 25.565-185.682 87.289-239.793 170.365l-0.942 1.542c-36.264 56.009-58.166 124.275-59.087 197.597l-0.002 0.244c-2.407 83.71 71.455 160.308 169.718 152.757 68.297-3.985 124.225-52.473 139.42-116.709l0.206-1.032c3.611-15.21 3.283-31.296 6.018-46.725 10.358-49.83 53.902-86.738 106.068-86.738 5.043 0 10.004 0.345 14.864 1.012l-0.564-0.063c54.713 5.206 97.17 50.927 97.17 106.564 0 0.044 0 0.088 0 0.133v-0.007c-2.079 152.32-110.519 287.569-266.778 332.981-167.202 47.928-346.549-17.727-435.731-161.183-45.083-72.221-54.713-151.663-44.536-233.623 5.252-41.691 18.712-82.397 28.998-123.432 5.143-20.353 1.094-33.484-14.444-37.205-17.508-4.049-25.168 8.207-29.873 21.885-21.901 57.624-34.583 124.255-34.583 193.848 0 0.788 0.002 1.576 0.005 2.363v-0.122zM172.673 304.763c0 159.651 131.31 284.505 294.463 280.894 137.766-3.502 247.082-88.525 278.049-217.209 3.548-16.139 5.906-34.947 6.552-54.189l0.014-0.523c0.156-0.963 0.246-2.073 0.246-3.203 0-11.603-9.406-21.010-21.010-21.010-0.394 0-0.786 0.011-1.175 0.032l0.054-0.002c-0.831-0.112-1.791-0.176-2.766-0.176-12.087 0-21.885 9.798-21.885 21.885 0 0.872 0.051 1.731 0.15 2.576l-0.010-0.103c-2.954 119.383-95.2 202.765-194.667 221.367-156.806 29.107-313.722-89.4-289.429-270.827 14.31-106.1 62.816-198.874 133.875-268.797l0.061-0.060c2.954-2.954 7.769-5.909 7.988-9.082 0.875-10.943 4.049-24.183-1.094-31.624-3.818-4.945-9.747-8.099-16.414-8.099s-12.596 3.154-16.378 8.051l-0.036 0.048c-16.748 15.971-32.344 32.676-46.932 50.248l-0.777 0.963c-67.713 80.186-108.872 184.705-108.878 298.838v0.002zM925.846 591.347c-5.581-7.003-9.192-15.757-15.538-18.274-2.673-0.713-5.742-1.123-8.907-1.123-5.084 0-9.921 1.057-14.304 2.963l0.232-0.090c-4.596 1.532-8.097 7.222-10.943 11.49-91.589 120.039-213.051 185.147-362.744 198.607-154.399 14.225-290.961-27.466-405.967-132.623-21.693-21.198-41.799-43.767-60.275-67.66l-1.112-1.496c-10.943-13.022-22.432-19.697-36.767-9.082s-9.52 24.839-0.328 37.752c84.468 115.442 211.887 195.139 358.288 215.574l2.815 0.322c28.882 5.168 62.129 8.122 96.066 8.122 115.419 0 222.857-34.174 312.746-92.956l-2.188 1.342c53.896-35.049 99.248-78.171 135.663-128.214l1.009-1.455c4.131-6.504 8.225-14.117 11.783-22.023l0.473-1.175zM464.51 960c107.018 2.079 206.485-25.715 301.466-73.534 19.587-9.958 25.168-23.855 15.21-37.423s-22.76-11.599-36.439-4.705c-51.729 27.993-111.791 49.22-175.311 60.424l-3.599 0.526c-31.060 5.63-66.809 8.85-103.31 8.85-95.95 0-186.704-22.247-267.385-61.865l3.574 1.586c-8.097-3.939-15.976-8.097-23.964-12.037-3.419-2.317-7.636-3.7-12.176-3.7-9.491 0-17.571 6.042-20.604 14.49l-0.048 0.153c-1.497 2.884-2.375 6.297-2.375 9.916 0 9.568 6.141 17.703 14.696 20.677l0.154 0.046c36.876 16.523 73.643 33.812 111.832 46.834 54.152 19.021 116.589 30.010 181.593 30.010 5.867 0 11.714-0.090 17.538-0.267l-0.852 0.021zM713.999 40.829c-1.149-0.017-2.505-0.027-3.863-0.027-137.835 0-252.021 101.249-272.242 233.431l-0.193 1.532c-0.911 8.575-1.431 18.524-1.431 28.594 0 0.757 0.003 1.514 0.009 2.27l-0.001-0.116c-0.657 14.991 4.596 25.934 21.119 26.919s23.198-10.943 26.043-25.605c5.471-27.903 7.222-57.776 18.602-83.272 46.177-102.86 140.064-146.52 251.678-132.842 2.626 0 5.252 1.423 7.988 1.86 19.697 2.736 33.375-4.486 35.673-18.821s-7.879-24.949-28.122-27.794c-18.383-2.517-36.876-3.939-55.26-6.128z" />
<glyph unicode="&#xe90e;" glyph-name="KnowPass" horiz-adv-x="1029" d="M22.912 735.747c0 0 0 0 0 0-12.654 0-22.912 10.258-22.912 22.912 0 0.038 0 0.076 0 0.114v-0.006 178.322c0 12.654 10.258 22.912 22.912 22.912v0h178.322c0.472 0.034 1.022 0.054 1.576 0.054 12.713 0 23.020-10.306 23.020-23.020s-10.306-23.020-23.020-23.020c-0.555 0-1.105 0.020-1.65 0.058l0.073-0.004h-155.302v-155.302c0-12.713-10.306-23.020-23.020-23.020v0zM201.234-64h-178.322c0 0 0 0 0 0-12.654 0-22.912 10.258-22.912 22.912 0 0.038 0 0.076 0 0.114v-0.006 178.322c0.85 12.017 10.807 21.443 22.966 21.443s22.116-9.427 22.962-21.37l0.004-0.073v-155.41h155.302c0.472 0.034 1.022 0.054 1.576 0.054 12.713 0 23.020-10.306 23.020-23.020s-10.306-23.020-23.020-23.020c-0.555 0-1.105 0.020-1.65 0.058l0.073-0.004zM1006.384 735.747c0 0 0 0 0 0-12.654 0-22.912 10.258-22.912 22.912 0 0.038 0 0.076 0 0.114v-0.006 155.302h-155.41c-12.017 0.85-21.443 10.807-21.443 22.966s9.427 22.116 21.37 22.962l0.073 0.004h178.322c0.032 0 0.070 0 0.108 0 12.654 0 22.912-10.258 22.912-22.912 0 0 0 0 0 0v0-178.322c0-12.713-10.306-23.020-23.020-23.020v0zM1006.384-64h-178.322c-12.017 0.85-21.443 10.807-21.443 22.966s9.427 22.116 21.37 22.962l0.073 0.004h155.41v155.41c0.85 12.017 10.807 21.443 22.966 21.443s22.116-9.427 22.962-21.37l0.004-0.073v-178.322c0-12.713-10.306-23.020-23.020-23.020v0zM390.363 546.617h-237.763c0 0 0 0 0 0-12.654 0-22.912 10.258-22.912 22.912 0 0.038 0 0.076 0 0.114v-0.006 237.763c0 12.654 10.258 22.912 22.912 22.912v0h237.763c0.032 0 0.070 0 0.108 0 12.654 0 22.912-10.258 22.912-22.912 0 0 0 0 0 0v0-237.763c0-12.713-10.306-23.020-23.020-23.020v0zM175.62 592.549h191.831v191.831h-191.831zM390.363 60.285h-237.763c0 0 0 0 0 0-12.654 0-22.912 10.258-22.912 22.912 0 0.038 0 0.076 0 0.114v-0.006 237.763c0 12.654 10.258 22.912 22.912 22.912v0h237.763c0.032 0 0.070 0 0.108 0 12.654 0 22.912-10.258 22.912-22.912 0 0 0 0 0 0v0-237.763c0-12.713-10.306-23.020-23.020-23.020v0zM175.62 106.216h191.831v191.831h-191.831zM876.695 546.617h-237.763c0 0 0 0 0 0-12.654 0-22.912 10.258-22.912 22.912 0 0.038 0 0.076 0 0.114v-0.006 237.763c0 12.654 10.258 22.912 22.912 22.912h237.763c0.032 0 0.070 0 0.108 0 12.654 0 22.912-10.258 22.912-22.912 0 0 0 0 0 0v0-237.763c0-12.713-10.306-23.020-23.020-23.020v0zM661.953 592.549h191.831v191.831h-191.831zM514.324 542.403c-12.654 0-22.912 10.258-22.912 22.912v0 146.116c0.85 12.017 10.807 21.443 22.966 21.443s22.116-9.427 22.962-21.37l0.004-0.073v-146.116c0 0 0 0 0 0 0-12.654-10.258-22.912-22.912-22.912-0.038 0-0.076 0-0.114 0h0.006zM574.088 56.070h-59.765c-12.654 0-22.912 10.258-22.912 22.912v0 243.382c0.85 12.017 10.807 21.443 22.966 21.443s22.116-9.427 22.962-21.37l0.004-0.073v-220.363h36.745c0.472 0.034 1.022 0.054 1.576 0.054 12.713 0 23.020-10.306 23.020-23.020s-10.306-23.020-23.020-23.020c-0.555 0-1.105 0.020-1.65 0.058l0.073-0.004zM876.371 56.070h-200.801c-12.017 0.85-21.443 10.807-21.443 22.966s9.427 22.116 21.37 22.962l0.073 0.004h178.214v220.363c0.85 12.017 10.807 21.443 22.966 21.443s22.116-9.427 22.962-21.37l0.004-0.073v-243.382c0-0.001 0-0.003 0-0.004 0-12.654-10.258-22.912-22.912-22.912-0.152 0-0.304 0.001-0.455 0.004h0.023zM757.814 54.881c0 0 0 0 0 0-12.654 0-22.912 10.258-22.912 22.912 0 0.038 0 0.076 0 0.114v-0.006 64.844c0.85 12.017 10.807 21.443 22.966 21.443s22.116-9.427 22.962-21.37l0.004-0.073v-64.844c0-12.713-10.306-23.020-23.020-23.020v0zM757.814 292.644h-118.881c-12.017 0.85-21.443 10.807-21.443 22.966s9.427 22.116 21.37 22.962l0.073 0.004h118.881c0.472 0.034 1.022 0.054 1.576 0.054 12.713 0 23.020-10.306 23.020-23.020s-10.306-23.020-23.020-23.020c-0.555 0-1.105 0.020-1.65 0.058l0.073-0.004zM698.373 222.396c0 0 0 0 0 0-12.654 0-22.912 10.258-22.912 22.912 0 0.038 0 0.076 0 0.114v-0.006 70.248c0.85 12.017 10.807 21.443 22.966 21.443s22.116-9.427 22.962-21.37l0.004-0.073v-70.248c0-12.713-10.306-23.020-23.020-23.020v0zM574.088 179.166h-59.765c-12.017 0.85-21.443 10.807-21.443 22.966s9.427 22.116 21.37 22.962l0.073 0.004h59.765c0.472 0.034 1.022 0.054 1.576 0.054 12.713 0 23.020-10.306 23.020-23.020s-10.306-23.020-23.020-23.020c-0.555 0-1.105 0.020-1.65 0.058l0.073-0.004zM514.648 753.471c0 0 0 0 0 0-12.616 0-22.85 10.196-22.911 22.798v31.131c0.85 12.017 10.807 21.443 22.966 21.443s22.116-9.427 22.962-21.37l0.004-0.073v-31.125c-0.061-12.607-10.296-22.804-22.911-22.804-0.038 0-0.076 0-0.114 0h0.006zM271.482 656.204c0 0 0 0 0 0-12.616 0-22.85 10.196-22.911 22.798v31.131c0.85 12.017 10.807 21.443 22.966 21.443s22.116-9.427 22.962-21.37l0.004-0.073v-31.125c-0.061-12.607-10.296-22.804-22.911-22.804-0.038 0-0.076 0-0.114 0h0.006zM757.814 656.204c0 0 0 0 0 0-12.616 0-22.85 10.196-22.911 22.798v31.131c0.85 12.017 10.807 21.443 22.966 21.443s22.116-9.427 22.962-21.37l0.004-0.073v-31.125c-0.061-12.607-10.296-22.804-22.911-22.804-0.038 0-0.076 0-0.114 0h0.006zM271.482 159.064c0 0 0 0 0 0-12.616 0-22.85 10.196-22.911 22.798v31.131c0.85 12.017 10.807 21.443 22.966 21.443s22.116-9.427 22.962-21.37l0.004-0.073v-31.125c-0.061-12.607-10.296-22.804-22.911-22.804-0.038 0-0.076 0-0.114 0h0.006zM397.82 419.631h-146.548c-12.017 0.85-21.443 10.807-21.443 22.966s9.427 22.116 21.37 22.962l0.073 0.004h146.548c12.017-0.85 21.443-10.807 21.443-22.966s-9.427-22.116-21.37-22.962l-0.073-0.004zM186.644 420.387h-30.909c-12.017 0.85-21.443 10.807-21.443 22.966s9.427 22.116 21.37 22.962l0.073 0.004h30.909c0.472 0.034 1.022 0.054 1.576 0.054 12.713 0 23.020-10.306 23.020-23.020s-10.306-23.020-23.020-23.020c-0.555 0-1.105 0.020-1.65 0.058l0.073-0.004zM659.251 419.631h-146.872c-12.017 0.85-21.443 10.807-21.443 22.966s9.427 22.116 21.37 22.962l0.073 0.004h146.872c12.017-0.85 21.443-10.807 21.443-22.966s-9.427-22.116-21.37-22.962l-0.073-0.004zM876.695 375.428c-0.001 0-0.001 0-0.002 0-12.54 0-22.727 10.074-22.909 22.57v21.632h-130.337c-12.017 0.85-21.443 10.807-21.443 22.966s9.427 22.116 21.37 22.962l0.073 0.004h153.249c12.713 0 23.020-10.306 23.020-23.020v-44.526c-0.243-12.526-10.454-22.587-23.016-22.587-0.001 0-0.003 0-0.004 0v0z" />
<glyph unicode="&#xe90f;" glyph-name="Microservices" d="M512.055 506.163c-0.002 0-0.005 0-0.008 0-49.526 0-89.675 40.149-89.675 89.675s40.149 89.675 89.675 89.675c49.526 0 89.675-40.149 89.675-89.675 0-24.788-10.058-47.228-26.315-63.46l-0.001-0.001c-16.173-16.196-38.528-26.214-63.223-26.214-0.045 0-0.090 0-0.135 0h0.007zM512.055 639.092c-0.066 0-0.145 0.001-0.223 0.001-11.874 0-22.616-4.846-30.356-12.667l-0.004-0.004c-8.124-7.941-13.162-19.009-13.162-31.255 0-24.13 19.561-43.691 43.691-43.691s43.691 19.561 43.691 43.691c0 12.245-5.038 23.314-13.154 31.247l-0.008 0.008c-7.727 7.824-18.455 12.671-30.314 12.671-0.056 0-0.113 0-0.169 0h0.009zM364.162 358.38c-49.482 0.058-89.573 40.185-89.573 89.675 0 49.526 40.149 89.675 89.675 89.675s89.675-40.149 89.675-89.675c0-24.788-10.058-47.228-26.315-63.46l-0.001-0.001c-16.123-16.194-38.435-26.215-63.088-26.215-0.131 0-0.262 0-0.393 0.001h0.020zM364.162 491.199c-0.039 0-0.086 0-0.133 0-11.902 0-22.673-4.844-30.449-12.668l-0.002-0.002c-8.092-7.936-13.107-18.983-13.107-31.201 0-24.13 19.561-43.691 43.691-43.691s43.691 19.561 43.691 43.691c0 12.218-5.016 23.265-13.1 31.195l-0.007 0.007c-7.744 7.825-18.486 12.671-30.36 12.671-0.079 0-0.157 0-0.235-0.001h0.012zM659.838 358.38c-0.002 0-0.005 0-0.008 0-49.526 0-89.675 40.149-89.675 89.675s40.149 89.675 89.675 89.675c49.526 0 89.675-40.149 89.675-89.675 0-24.788-10.058-47.228-26.315-63.46l-0.001-0.001c-16.123-16.194-38.435-26.215-63.088-26.215-0.093 0-0.185 0-0.278 0h0.014zM659.838 491.199c-1.964 0.313-4.229 0.492-6.535 0.492-24.13 0-43.691-19.561-43.691-43.691s19.561-43.691 43.691-43.691c2.306 0 4.571 0.179 6.781 0.523l-0.246-0.032c1.964-0.313 4.229-0.492 6.535-0.492 24.13 0 43.691 19.561 43.691 43.691s-19.561 43.691-43.691 43.691c-2.306 0-4.571-0.179-6.781-0.523l0.246 0.032zM512.055 210.596c-49.37 0.047-89.374 40.080-89.374 89.457 0 49.406 40.051 89.457 89.457 89.457s89.457-40.051 89.457-89.457c0-24.696-10.007-47.055-26.188-63.243v0c-16.173-16.196-38.528-26.214-63.223-26.214-0.045 0-0.090 0-0.135 0h0.007zM512.055 343.415c-0.066 0-0.145 0.001-0.223 0.001-11.874 0-22.616-4.846-30.356-12.667l-0.004-0.004c-8.408-7.979-13.639-19.236-13.639-31.714 0-24.13 19.561-43.691 43.691-43.691s43.691 19.561 43.691 43.691c0 0.397-0.005 0.794-0.016 1.188l0.001-0.058c0 0.001 0 0.002 0 0.003 0 23.938-19.251 43.379-43.115 43.687h-0.029zM895.659-64h-767.317c-70.856 0.062-128.279 57.485-128.341 128.335v767.323c0.062 70.856 57.485 128.279 128.335 128.341h767.323c70.856-0.062 128.279-57.485 128.341-128.335v-767.323c-0.062-70.856-57.485-128.279-128.335-128.341h-0.006zM128.341 913.579c-45.193-0.124-81.796-36.727-81.92-81.908v-767.329c0.124-45.193 36.727-81.796 81.908-81.92h767.329c45.193 0.124 81.796 36.727 81.92 81.908v767.329c-0.124 45.193-36.727 81.796-81.908 81.92h-0.012zM512.055 126.491c-0.032 0-0.071 0-0.109 0-177.595 0-321.563 143.969-321.563 321.563s143.969 321.563 321.563 321.563c177.595 0 321.563-143.969 321.563-321.563 0-0.038 0-0.077 0-0.115v0.006c-0.31-177.409-144.045-321.144-321.424-321.454h-0.030zM512.055 723.087c-0.033 0-0.071 0-0.109 0-151.957 0-275.142-123.185-275.142-275.142s123.185-275.142 275.142-275.142c151.957 0 275.142 123.185 275.142 275.142v0c-0.186 151.843-123.198 274.894-275.009 275.142h-0.024z" />
<glyph unicode="&#xe910;" glyph-name="Opportunity-Management" horiz-adv-x="1007" d="M522.267-7.025h-378.881c-79.163 0.068-143.319 64.223-143.386 143.38v680.259c0.068 79.163 64.223 143.319 143.38 143.386h504.706c79.163-0.068 143.319-64.223 143.386-143.38v-343.278c0-12.521-10.15-22.671-22.671-22.671s-22.671 10.15-22.671 22.671v0 343.272c-0.135 54.070-43.965 97.858-98.037 97.925h-504.707c-54.055-0.067-97.858-43.87-97.925-97.919v-680.259c0.067-54.079 43.855-97.909 97.912-98.044h378.894c12.521 0 22.671-10.15 22.671-22.671s-10.15-22.671-22.671-22.671v0zM395.736 567.706c-61.031 0-110.507 49.476-110.507 110.507s49.476 110.507 110.507 110.507c61.031 0 110.507-49.476 110.507-110.507v0c-0.135-60.977-49.53-110.372-110.494-110.507h-0.013zM395.736 743.259c-35.924 0-65.046-29.122-65.046-65.046s29.122-65.046 65.046-65.046c35.924 0 65.046 29.122 65.046 65.046v0c-0.067 35.897-29.149 64.979-65.040 65.046h-0.006zM538.41 319.036h-284.873c-30.694 0.068-55.55 24.965-55.55 55.669 0 0 0 0 0 0v0 22.434c0.066 79.020 63.938 143.101 142.873 143.505h110.19c78.769-0.672 142.372-64.65 142.437-143.499v-21.846c0.002-0.177 0.003-0.387 0.003-0.597 0-30.538-24.588-55.332-55.047-55.666h-0.032zM340.898 495.182c-54.121-0.067-97.976-43.923-98.044-98.037v-21.847c0-5.638 4.57-10.208 10.208-10.208v0h284.873c5.638 0 10.208 4.57 10.208 10.208v0 21.84c0 0.001 0 0.003 0 0.005 0 53.814-43.356 97.502-97.043 98.039h-0.051zM435.262 208.766h-214.96c-12.521 0-22.671 10.15-22.671 22.671s10.15 22.671 22.671 22.671h214.96c12.521 0 22.671-10.15 22.671-22.671s-10.15-22.671-22.671-22.671v0zM914.561 224.078c-51.001 0-92.346 41.345-92.346 92.346s41.345 92.346 92.346 92.346c51.001 0 92.346-41.345 92.346-92.346v0c-0.067-50.974-41.372-92.279-92.34-92.346h-0.006zM914.561 368.057c-28.516 0-51.633-23.117-51.633-51.633s23.117-51.633 51.633-51.633c28.516 0 51.633 23.117 51.633 51.633v0c-0.135 28.414-23.2 51.396-51.633 51.396 0 0 0 0-0.001 0v0zM914.561-64c-51.001 0-92.346 41.345-92.346 92.346s41.345 92.346 92.346 92.346c51.001 0 92.346-41.345 92.346-92.346v0c-0.067-50.974-41.372-92.279-92.34-92.346h-0.006zM914.561 79.98c-28.516 0-51.633-23.117-51.633-51.633s23.117-51.633 51.633-51.633c28.516 0 51.633 23.117 51.633 51.633v0c-0.067 28.489-23.144 51.566-51.627 51.633h-0.006zM662.567 79.98c-51.001 0-92.346 41.345-92.346 92.346s41.345 92.346 92.346 92.346c51.001 0 92.346-41.345 92.346-92.346 0-0.042 0-0.083 0-0.125v0.006c-0.068-50.95-41.387-92.228-92.346-92.228v0zM662.567 223.841c-28.516 0-51.633-23.117-51.633-51.633s23.117-51.633 51.633-51.633c28.516 0 51.633 23.117 51.633 51.633v0c0 0.035 0 0.077 0 0.119 0 28.54-23.103 51.684-51.627 51.752h-0.006zM728.8 182.89c-11.178 0.128-20.19 9.219-20.19 20.415 0 7.521 4.067 14.093 10.123 17.635l0.097 0.052 125.344 70.506c2.871 1.637 6.308 2.602 9.971 2.602 11.27 0 20.406-9.136 20.406-20.406 0-7.607-4.163-14.243-10.335-17.752l-0.101-0.053-125.344-70.269c-2.857-1.694-6.293-2.705-9.963-2.73h-0.007zM854.619 46.032c-0.006 0-0.014 0-0.021 0-3.416 0-6.636 0.834-9.47 2.309l0.114-0.054-129.617 66.47c-7.939 2.877-13.509 10.352-13.509 19.129 0 11.21 9.087 20.297 20.297 20.297 4.448 0 8.562-1.431 11.907-3.857l-0.059 0.041 129.142-66.47c5.991-3.63 9.933-10.114 9.933-17.519 0-10.677-8.197-19.44-18.641-20.34l-0.076-0.005z" />
<glyph unicode="&#xe911;" glyph-name="Trading" horiz-adv-x="992" d="M162.037 337.683h-140.678c-11.81 0.063-21.359 9.652-21.359 21.47 0 0 0 0 0 0v0 457.149c0 11.796 9.563 21.359 21.359 21.359h140.678c0.033 0 0.073 0 0.112 0 11.734 0 21.247-9.513 21.247-21.247 0-0.039 0-0.079 0-0.118v0.006-457.149c0-0.033 0-0.073 0-0.112 0-11.796-9.563-21.359-21.359-21.359 0 0 0 0 0 0v0zM42.718 380.512h97.96v414.431h-97.96zM91.81 233.124c-0.033 0-0.073 0-0.112 0-11.695 0-21.184 9.449-21.247 21.13v104.9c0 11.796 9.563 21.359 21.359 21.359s21.359-9.563 21.359-21.359v-104.894c-0.063-11.686-9.552-21.136-21.247-21.136-0.039 0-0.079 0-0.118 0h0.006zM91.81 794.943c-0.033 0-0.073 0-0.112 0-11.734 0-21.247 9.513-21.247 21.247 0 0.039 0 0.079 0 0.118v-0.006 122.339c0 11.796 9.563 21.359 21.359 21.359s21.359-9.563 21.359-21.359v-122.339c0-0.033 0-0.073 0-0.112 0-11.734-9.513-21.247-21.247-21.247-0.039 0-0.079 0-0.118 0h0.006zM431.764 149.366h-141.014c-11.858 0-21.471 9.613-21.471 21.471v457.149c0.063 11.81 9.652 21.359 21.47 21.359 0 0 0 0 0 0h141.014c11.771-0.063 21.296-9.588 21.359-21.353v-457.155c0 0 0 0 0 0 0-11.819-9.549-21.407-21.353-21.47h-0.006zM312.445 192.196h97.849v414.431h-97.849zM361.872 36.644c-0.033 0-0.073 0-0.112 0-11.734 0-21.247 9.513-21.247 21.247 0 0.039 0 0.079 0 0.118v-0.006 112.833c0 11.796 9.563 21.359 21.359 21.359s21.359-9.563 21.359-21.359v0-112.833c0-0.033 0-0.073 0-0.112 0-11.734-9.513-21.247-21.247-21.247-0.039 0-0.079 0-0.118 0h0.006zM361.872 606.627c-0.033 0-0.073 0-0.112 0-11.734 0-21.247 9.513-21.247 21.247 0 0.039 0 0.079 0 0.118v-0.006 114.399c0 11.796 9.563 21.359 21.359 21.359s21.359-9.563 21.359-21.359v0-114.399c0-0.033 0-0.073 0-0.112 0-11.734-9.513-21.247-21.247-21.247-0.039 0-0.079 0-0.118 0h0.006zM701.379 220.152h-140.678c0 0 0 0 0 0-11.796 0-21.359 9.563-21.359 21.359 0 0.039 0 0.079 0 0.118v-0.006 457.149c0 11.796 9.563 21.359 21.359 21.359v0h140.678c11.796 0 21.359-9.563 21.359-21.359v0-457.149c0-0.033 0-0.073 0-0.112 0-11.796-9.563-21.359-21.359-21.359 0 0 0 0 0 0v0zM582.060 262.982h97.96v414.431h-97.96zM631.040 106.536c0 0 0 0 0 0-11.796 0-21.359 9.563-21.359 21.359 0 0.039 0 0.079 0 0.118v-0.006 113.616c0 11.796 9.563 21.359 21.359 21.359s21.359-9.563 21.359-21.359v0-113.616c0-0.033 0-0.073 0-0.112 0-11.796-9.563-21.359-21.359-21.359 0 0 0 0 0 0v0zM631.040 677.413c-0.033 0-0.073 0-0.112 0-11.734 0-21.247 9.513-21.247 21.247 0 0.039 0 0.079 0 0.118v-0.006 113.616c0 11.796 9.563 21.359 21.359 21.359s21.359-9.563 21.359-21.359v0-113.616c0-0.033 0-0.073 0-0.112 0-11.734-9.513-21.247-21.247-21.247-0.039 0-0.079 0-0.118 0h0.006zM970.994 48.945h-140.678c-11.81 0.063-21.359 9.652-21.359 21.47 0 0 0 0 0 0v0 457.149c0 11.796 9.563 21.359 21.359 21.359v0h140.678c0.033 0 0.073 0 0.112 0 11.796 0 21.359-9.563 21.359-21.359 0 0 0 0 0 0v0-457.149c0-11.858-9.613-21.471-21.471-21.471v0zM851.786 91.775h97.849v414.431h-97.849zM901.997-64c-0.033 0-0.073 0-0.112 0-11.734 0-21.247 9.513-21.247 21.247 0 0.039 0 0.079 0 0.118v-0.006 113.057c0 11.796 9.563 21.359 21.359 21.359s21.359-9.563 21.359-21.359v-113.057c0-0.033 0-0.073 0-0.112 0-11.734-9.513-21.247-21.247-21.247-0.039 0-0.079 0-0.118 0h0.006zM901.997 506.206c-11.796 0-21.359 9.563-21.359 21.359v0 114.175c0 11.796 9.563 21.359 21.359 21.359s21.359-9.563 21.359-21.359v-114.175c0-11.796-9.563-21.359-21.359-21.359v0z" />
<glyph unicode="&#xe912;" glyph-name="Transaction-Services" horiz-adv-x="1101" d="M594.068 472.707c-62.156 0-112.544 50.388-112.544 112.544s50.388 112.544 112.544 112.544c62.156 0 112.544-50.388 112.544-112.544v0c-0.062-62.131-50.413-112.482-112.538-112.544h-0.006zM594.068 651.537c-36.609 0-66.286-29.677-66.286-66.286s29.677-66.286 66.286-66.286c36.609 0 66.286 29.677 66.286 66.286v0c0 36.609-29.677 66.286-66.286 66.286v0zM739.374 219.864h-290.612c-0.065 0-0.141 0-0.218 0-31.319 0-56.707 25.389-56.707 56.707 0 0 0 0 0 0.001v0 22.422c0.124 80.698 65.571 146.068 146.286 146.068 0.038 0 0.076 0 0.115 0h111.777c80.646-0.062 146.006-65.422 146.068-146.062v-22.428c0-0.032 0-0.071 0-0.109 0-31.259-25.34-56.599-56.599-56.599-0.038 0-0.077 0-0.115 0h0.006zM538.231 398.803c-55.12-0.062-99.795-44.698-99.918-99.798v-22.434c0-6.011 4.873-10.884 10.884-10.884v0h290.612c6.011 0 10.884 4.873 10.884 10.884v0 22.422c-0.062 55.098-44.711 99.748-99.804 99.81h-0.006zM588.626-64c-130.053 0.043-248.723 48.744-338.801 128.886l0.515-0.45c-14.344 12.713-23.339 31.184-23.339 51.755 0 38.137 30.916 69.054 69.054 69.054 17.566 0 33.6-6.559 45.786-17.361l-0.072 0.063c65.591-58.195 152.424-93.738 247.56-93.738 206.427 0 373.769 167.342 373.769 373.769s-167.342 373.769-373.769 373.769c-184.077 0-337.074-133.067-368.046-308.256l-0.33-2.251h26.122c8.374-0.054 16.21-2.309 22.973-6.215l-0.225 0.12c10.304-6.049 17.899-15.772 21.042-27.328l0.074-0.318c1-3.528 1.575-7.579 1.575-11.765 0-8.342-2.283-16.151-6.26-22.836l0.113 0.206-101.333-174.15c-7.985-13.701-22.607-22.763-39.347-22.763s-31.362 9.062-39.231 22.548l-0.116 0.216-100.571 174.15c-3.632 6.323-5.774 13.903-5.774 21.982 0 0.231 0.002 0.462 0.005 0.692v-0.035c0.061 25.064 20.332 45.373 45.376 45.497h35.386c32.35 254.212 247.302 448.762 507.695 448.762 0.136 0 0.272 0 0.408 0h-0.021c282.77 0 512-229.23 512-512s-229.23-512-512-512v0zM295.837 141.497c-0.005 0-0.011 0-0.017 0-14.126 0-25.578-11.452-25.578-25.578 0-7.555 3.275-14.345 8.483-19.027l0.023-0.021c81.948-72.838 190.501-117.333 309.446-117.333 0.075 0 0.151 0 0.226 0h-0.012c0.097 0 0.212 0 0.327 0 258.725 0 468.463 209.738 468.463 468.463 0 258.61-209.552 468.277-468.119 468.463h-0.018c-244.358-1.247-444.647-188.267-466.907-426.975l-0.141-1.868c-0.984-11.2-10.319-19.919-21.69-19.919-0.028 0-0.055 0-0.083 0h-54.853c-1.034-0.059-1.85-0.912-1.85-1.956 0-0.001 0-0.002 0-0.003v0l100.789-175.020c0.399-0.563 1.048-0.926 1.782-0.926 0.3 0 0.585 0.060 0.845 0.17l-0.014-0.005 101.224 174.912c0.114 0.248 0.18 0.539 0.18 0.844 0 0.677-0.325 1.278-0.828 1.655l-0.005 0.004h-52.027c-11.914 0.141-21.518 9.833-21.518 21.767 0 0.998 0.067 1.981 0.197 2.944l-0.012-0.112c23.107 210.651 200.063 373.081 414.956 373.081 230.472 0 417.306-186.834 417.306-417.306s-186.834-417.306-417.306-417.306c-106.32 0-203.354 39.761-277.043 105.224l0.427-0.372c-4.395 3.854-10.192 6.204-16.538 6.204-0.041 0-0.081 0-0.122 0h0.006z" />
<glyph unicode="&#xe913;" glyph-name="Wealth-Management" horiz-adv-x="1062" d="M443.413 15.545h-300.904c-0.103 0-0.226 0-0.348 0-78.391 0-141.963 63.45-142.161 141.794v660.268c0 0 0 0 0 0.001 0 78.478 63.487 142.129 141.904 142.392h490.747c78.382-0.066 141.913-63.556 142.045-141.917v-286.19c0.037-0.478 0.058-1.035 0.058-1.597 0-12.168-9.864-22.031-22.031-22.031s-22.031 9.864-22.031 22.031c0 0.562 0.021 1.119 0.062 1.671l-0.004-0.073v286.177c-0.132 54.102-43.987 97.916-98.092 97.982h-490.728c-54.102-0.132-97.916-43.987-97.982-98.092v-660.255c0.066-54.128 43.961-97.982 98.098-97.982h300.788c12.168 0 22.031-9.864 22.031-22.031s-9.864-22.031-22.031-22.031v0zM436.803 326.885h-266.697c-12.168 0-22.031 9.864-22.031 22.031s9.864 22.031 22.031 22.031h266.697c0.478 0.037 1.035 0.058 1.597 0.058 12.168 0 22.031-9.864 22.031-22.031s-9.864-22.031-22.031-22.031c-0.562 0-1.119 0.021-1.671 0.062l0.073-0.004zM607.605 435.535h-437.731c-12.168 0-22.031 9.864-22.031 22.031s9.864 22.031 22.031 22.031h437.731c11.461-0.858 20.434-10.368 20.434-21.974s-8.974-21.115-20.361-21.969l-0.073-0.004zM436.919 225.192h-266.697c-0.478-0.037-1.035-0.058-1.597-0.058-12.168 0-22.031 9.864-22.031 22.031s9.864 22.031 22.031 22.031c0.562 0 1.119-0.021 1.671-0.062l-0.073 0.004h266.697c0.478 0.037 1.035 0.058 1.597 0.058 12.168 0 22.031-9.864 22.031-22.031s-9.864-22.031-22.031-22.031c-0.562 0-1.119 0.021-1.671 0.062l0.073-0.004zM282.119 569.579h-108.186c-0.478-0.037-1.035-0.058-1.597-0.058-12.168 0-22.031 9.864-22.031 22.031s9.864 22.031 22.031 22.031c0.562 0 1.119-0.021 1.671-0.062l-0.073 0.004h98.33l71.081 85.227c4.070 4.894 10.161 7.986 16.974 7.986 1.089 0 2.159-0.079 3.205-0.231l-0.119 0.014 127.551-19.017 111.085 125.579c4.026 4.256 9.713 6.905 16.018 6.905 12.168 0 22.031-9.864 22.031-22.031 0-5.324-1.889-10.207-5.032-14.016l0.030 0.037-119.202-134.508c-4.055-4.564-9.941-7.426-16.494-7.426-1.136 0-2.251 0.086-3.341 0.252l0.122-0.015-127.551 18.901-69.573-83.72c-4.105-4.808-10.158-7.847-16.923-7.885h-0.007zM751.969-64c-126.287 0-228.664 102.376-228.664 228.664s102.376 228.664 228.664 228.664v0c12.168 0 22.031-9.864 22.031-22.031v0-184.717h184.601c0 0 0 0 0 0 12.127 0 21.965-9.798 22.031-21.909v-0.006c-0.132-126.234-102.429-228.532-228.651-228.664h-0.013zM730.517 347.989c-92.354-11.125-163.238-89.016-163.238-183.464 0-102.016 82.7-184.717 184.717-184.717 94.301 0 172.097 70.664 183.325 161.929l0.090 0.895h-183.441c-11.903 0.26-21.452 9.97-21.452 21.911 0 0.042 0 0.085 0 0.127v-0.007zM898.073-3.471c-0.025 0-0.054 0-0.083 0-6.031 0-11.494 2.436-15.456 6.379l-146.102 146.218c-3.991 3.97-6.461 9.466-6.461 15.538 0 12.104 9.812 21.916 21.916 21.916 0.029 0 0.058 0 0.088 0h206.628c0 0 0 0 0 0 12.127 0 21.965-9.798 22.031-21.909v-0.006c0.002-0.354 0.003-0.774 0.003-1.193 0-62.96-25.575-119.947-66.903-161.138l-0.006-0.006c-3.909-3.602-9.151-5.81-14.908-5.81-0.262 0-0.523 0.005-0.783 0.014l0.038-0.001zM805.309 142.632l92.184-92.068c20.167 25.418 33.848 56.835 38.060 91.179l0.089 0.889zM1040.002 223.917h-206.632c-12.168 0-22.031 9.864-22.031 22.031v0 206.632c0 12.168 9.864 22.031 22.031 22.031v0c126.184-0.198 228.416-102.47 228.548-228.651v-0.013c0-0.034 0-0.075 0-0.116 0-12.104-9.812-21.916-21.916-21.916 0 0 0 0 0 0v0zM855.285 267.98h161.41c-10.772 84.43-76.965 150.582-160.491 161.198l-0.919 0.095z" />
<glyph unicode="&#xe914;" horiz-adv-x="826" d="M274.447 598.248c-31.121 0-56.35 25.229-56.35 56.35s25.229 56.35 56.35 56.35c31.045 0 56.226-25.105 56.35-56.12v-0.012c0-0.032 0-0.071 0-0.109 0-31.143-25.216-56.397-56.344-56.459h-0.006zM274.447 687.842c-18.359 0-33.242-14.884-33.242-33.243s14.883-33.243 33.243-33.243c18.36 0 33.243 14.883 33.243 33.243 0 0.077 0 0.153-0.001 0.23v-0.012c-0.366 18.101-15.097 32.641-33.238 32.698h-0.006z" />
<glyph unicode="&#xe915;" horiz-adv-x="826" d="M347.255 471.706h-145.616c-15.651 0-28.338 12.688-28.338 28.338v10.899c0.062 40.366 32.769 73.073 73.129 73.135h56.029c40.366-0.062 73.073-32.769 73.135-73.129v-10.905c0-15.651-12.688-28.338-28.338-28.338v0zM246.436 561.19c-0.097 0.001-0.212 0.001-0.327 0.001-27.57 0-49.919-22.35-49.919-49.919 0 0 0-0.001 0-0.001v0-10.899c0 0 0-0.001 0-0.001 0-2.851 2.281-5.169 5.117-5.23h145.949c2.842 0.061 5.123 2.38 5.123 5.231 0 0 0 0.001 0 0.001v0 10.899c0 27.57-22.35 49.919-49.919 49.919v0z" />
<glyph unicode="&#xe916;" horiz-adv-x="826" d="M536.033 598.248c-31.121 0-56.35 25.229-56.35 56.35s25.229 56.35 56.35 56.35c31.045 0 56.226-25.105 56.35-56.12v-0.012c0-0.032 0-0.071 0-0.109 0-31.143-25.216-56.397-56.344-56.459h-0.006zM536.033 687.842c-0.162 0.003-0.353 0.004-0.545 0.004-18.36 0-33.243-14.883-33.243-33.243s14.883-33.243 33.243-33.243c18.358 0 33.241 14.881 33.243 33.239v0c-0.239 18.006-14.711 32.554-32.664 32.916l-0.034 0.001z" />
<glyph unicode="&#xe917;" horiz-adv-x="826" d="M608.841 471.706h-145.616c-15.651 0-28.338 12.688-28.338 28.338v10.899c0.062 40.366 32.769 73.073 73.129 73.135h56.029c40.366-0.062 73.073-32.769 73.135-73.129v-10.905c0-15.651-12.688-28.338-28.338-28.338v0zM508.022 561.19c-0.097 0.001-0.212 0.001-0.327 0.001-27.57 0-49.919-22.35-49.919-49.919 0 0 0-0.001 0-0.001v0-10.899c0 0 0-0.001 0-0.001 0-2.851 2.281-5.169 5.117-5.23h145.949c2.842 0.061 5.123 2.38 5.123 5.231 0 0 0 0.001 0 0.001v0 10.899c0 27.57-22.35 49.919-49.919 49.919v0z" />
<glyph unicode="&#xe918;" horiz-adv-x="826" d="M742.577-64.545h-658.979c-0.791-0.028-1.72-0.043-2.653-0.043-43.859 0-79.575 34.866-80.942 78.394l-0.003 0.126v790.753c0 13.624 0 38.911 1.090 79.021 0 41.963 37.167 76.296 82.836 76.296h549.33c0.059 0.001 0.128 0.001 0.197 0.001 5.573 0 10.643-2.156 14.42-5.68l-0.012 0.011 171.121-155.317c4.413-3.994 7.178-9.738 7.194-16.128v-768.957c-1.37-43.653-37.086-78.519-80.945-78.519-0.933 0-1.862 0.016-2.788 0.047l0.135-0.004zM83.925 916.402c-0.759 0.056-1.643 0.087-2.536 0.087-19.226 0-35.012-14.727-36.692-33.516l-0.010-0.141c-1.090-39.892-1.090-64.525-1.090-78.149v-790.753c1.363-19.591 17.59-34.968 37.409-34.968 0.912 0 1.817 0.033 2.712 0.097l-0.12-0.007h658.979c0.775-0.057 1.68-0.090 2.592-0.090 19.819 0 36.046 15.376 37.402 34.85l0.007 0.118v759.362l-157.715 143.109z" />
<glyph unicode="&#xe919;" horiz-adv-x="826" d="M279.461 277.479c-31.121 0-56.35 25.229-56.35 56.35s25.229 56.35 56.35 56.35c31.121 0 56.35-25.229 56.35-56.35v0c0-31.121-25.229-56.35-56.35-56.35v0zM279.461 366.963c-17.823-0.307-32.153-14.827-32.153-32.694 0-18.059 14.64-32.698 32.698-32.698s32.696 14.637 32.698 32.693v0c0 0.001 0 0.003 0 0.005 0 18.059-14.64 32.698-32.698 32.698-0.192 0-0.383-0.002-0.574-0.005h0.029z" />
<glyph unicode="&#xe91a;" horiz-adv-x="826" d="M352.269 150.827h-145.18c-15.664 0.062-28.338 12.774-28.338 28.447 0 0 0 0 0 0v0 10.899c0.062 40.366 32.769 73.073 73.129 73.135h56.029c40.366-0.062 73.073-32.769 73.135-73.129v-10.905c0-0.001 0-0.001 0-0.002 0-15.711-12.736-28.447-28.447-28.447-0.115 0-0.23 0.001-0.344 0.002h0.017zM251.449 240.639c-27.583-0.062-49.919-22.437-49.919-50.028 0 0 0 0 0 0v0-10.899c-0.001-0.032-0.001-0.071-0.001-0.109 0-2.829 2.294-5.123 5.123-5.123 0 0 0.001 0 0.001 0h145.616c0 0 0.001 0 0.001 0 2.829 0 5.123 2.294 5.123 5.123 0 0.038 0 0.077-0.001 0.115v-0.006 10.899c0 0 0 0 0 0 0 27.592-22.336 49.966-49.913 50.028h-0.006z" />
<glyph unicode="&#xe91b;" horiz-adv-x="826" d="M541.047 277.479c-31.121 0-56.35 25.229-56.35 56.35s25.229 56.35 56.35 56.35c31.121 0 56.35-25.229 56.35-56.35v0c0-31.121-25.229-56.35-56.35-56.35v0zM541.047 366.963c-18.059 0-32.698-14.64-32.698-32.698s14.64-32.698 32.698-32.698c18.059 0 32.698 14.64 32.698 32.698v0c0 18.059-14.64 32.698-32.698 32.698v0z" />
<glyph unicode="&#xe91c;" horiz-adv-x="826" d="M613.855 150.827h-145.18c-15.664 0.062-28.338 12.774-28.338 28.447 0 0 0 0 0 0v0 10.899c0.062 40.366 32.769 73.073 73.129 73.135h56.029c40.366-0.062 73.073-32.769 73.135-73.129v-10.905c0-0.001 0-0.001 0-0.002 0-15.711-12.736-28.447-28.447-28.447-0.115 0-0.23 0.001-0.344 0.002h0.017zM513.035 240.639c-27.583-0.062-49.919-22.437-49.919-50.028 0 0 0 0 0 0v0-10.899c-0.001-0.032-0.001-0.071-0.001-0.109 0-2.829 2.294-5.123 5.123-5.123 0 0 0.001 0 0.001 0h145.616c0 0 0.001 0 0.001 0 2.829 0 5.123 2.294 5.123 5.123 0 0.038 0 0.077-0.001 0.115v-0.006 10.899c0 0 0 0 0 0 0 27.592-22.336 49.966-49.913 50.028h-0.006z" />
<glyph unicode="&#xe91d;" glyph-name="trade" horiz-adv-x="910" d="M265.482 779.854h142.222v-426.665h-142.222v-142.222h-94.815v142.222h-142.222v426.665h142.222v142.222h94.815v-142.222zM123.259 685.040v-237.037h189.629v237.037h-189.629zM739.556 542.817h142.222v-426.667h-142.222v-142.222h-94.817v142.222h-142.221v426.667h142.221v142.222h94.817v-142.222zM597.333 448.002v-237.036h189.628v237.036h-189.628z" />
<glyph unicode="&#xe91e;" glyph-name="documents" d="M213.334 618.669v-511.998h597.331v511.998h-597.331zM213.334 704.002h597.331v85.334h-597.331v-85.334zM853.335 21.335h-682.669c-11.316 0-22.168 4.495-30.17 12.498s-12.497 18.852-12.497 30.167v768.002c0 11.316 4.495 22.169 12.497 30.17s18.854 12.496 30.17 12.496h682.669c11.315 0 22.164-4.495 30.167-12.496s12.498-18.854 12.498-30.17v-768.002c0-11.315-4.495-22.164-12.498-30.167s-18.852-12.498-30.167-12.498zM298.666 533.336h170.667v-170.665h-170.667v170.665zM298.666 277.335h426.669v-85.335h-426.669v85.335zM554.665 490.669h170.67v-85.334h-170.67v85.334z" />
<glyph unicode="&#xe91f;" glyph-name="resource-library" horiz-adv-x="910" d="M786.961 922.076h-616.294c-57.173 0-142.222-37.879-142.222-142.222v-663.704c0-104.346 85.049-142.222 142.222-142.222h711.111v94.817h-710.542c-21.902 0.569-47.976 9.193-47.976 47.406s26.074 46.837 47.976 47.406h710.542v663.706c0 52.29-42.524 94.815-94.817 94.815zM786.961 258.372h-663.702v521.482c0 38.211 26.074 46.839 47.407 47.408h616.294v-568.889z" />
<glyph unicode="&#xe920;" glyph-name="transactions" d="M911.355 680.437c0 25.481-20.762 46.241-46.239 46.241h-603.941l100.975 102.857c17.931 17.931 17.931 47.183 0 66.055-9.439 9.439-20.761 13.211-33.032 13.211s-23.591-4.72-33.031-13.211l-180.238-182.126c-17.931-17.931-17.931-47.183 0-65.114l181.182-183.069c8.492-8.492 20.761-14.152 33.032-14.152s23.591 4.72 33.031 13.211c8.492 8.492 14.152 20.761 14.152 33.032s-4.72 24.533-13.211 33.031l-104.745 103.792h604.886c26.419 0 47.176 20.76 47.176 46.241l0.005 0.003zM697.19-16.922c12.268 0 24.53 4.721 33.029 14.152l181.181 183.071c17.93 17.93 17.93 47.181 0 65.111l-181.181 181.181c-17.93 17.935-47.181 17.935-66.053 0-17.93-17.93-17.93-47.181 0-66.053l101.914-101.914h-603.939c-25.48 0-46.241-20.762-46.241-46.239 0-25.482 20.761-46.244 46.241-46.244h604.881l-102.861-103.798c-8.494-8.494-13.21-20.762-13.21-33.029 0-12.273 4.716-23.593 14.152-33.034 8.494-8.484 19.82-13.204 32.087-13.204v0z" />
<glyph unicode="&#xe921;" glyph-name="portfolio" horiz-adv-x="1152" d="M949.293 741.338h-160v53.334c0 42.435-16.858 83.131-46.867 113.137-30.003 30.006-70.701 46.863-113.134 46.863h-106.666c-42.435 0-83.132-16.857-113.137-46.863s-46.863-70.702-46.863-113.137v-53.334h-160c-42.435 0-83.132-16.857-113.137-46.863s-46.863-70.702-46.863-113.137v-480.001c0-42.432 16.857-83.13 46.863-113.139 30.006-30.003 70.702-46.861 113.137-46.861h746.668c42.432 0 83.13 16.858 113.133 46.861 30.010 30.010 46.867 70.707 46.867 113.139v480.001c0 42.435-16.858 83.131-46.867 113.137-30.003 30.006-70.701 46.863-113.133 46.863zM469.292 794.672c0 14.145 5.619 27.71 15.621 37.712s23.567 15.621 37.713 15.621h106.666c14.145 0 27.713-5.619 37.71-15.621 10.003-10.002 15.622-23.567 15.622-37.712v-53.334h-213.332v53.334zM1002.624 101.338c0-14.144-5.619-27.712-15.622-37.709-9.997-10.003-23.565-15.622-37.709-15.622h-746.668c-14.145 0-27.711 5.619-37.713 15.622-10.002 9.997-15.621 23.565-15.621 37.709v269.334h160v-56.003c0-14.144 5.619-27.706 15.621-37.709s23.567-15.622 37.713-15.622c14.145 0 27.71 5.619 37.712 15.622s15.621 23.565 15.621 37.709v56.003h319.997v-56.003c0-14.144 5.619-27.706 15.622-37.709s23.571-15.622 37.715-15.622c14.144 0 27.712 5.619 37.709 15.622 10.003 10.003 15.622 23.565 15.622 37.709v56.003h160v-269.334zM1002.624 474.672h-853.332v106.667c0 14.145 5.619 27.71 15.621 37.712s23.567 15.621 37.713 15.621h746.668c14.144 0 27.712-5.619 37.709-15.621 10.003-10.002 15.622-23.567 15.622-37.712v-106.667z" />
<glyph unicode="&#xe922;" glyph-name="service-request" d="M85.338 192h298.666v-85.335h-298.666v85.335zM85.338 490.664h384v-85.335h-384v85.335zM85.338 789.331h853.332v-85.334h-853.332v85.334zM882.094 404.265l49.321 16.681 42.67-73.897-39.086-34.345c4.92-23.327 4.92-47.421 0-70.743l39.086-34.345-42.67-73.902-49.321 16.686c-17.495-15.79-38.313-27.95-61.225-35.415l-10.199-50.985h-85.335l-10.24 51.026c-22.641 7.404-43.484 19.466-61.184 35.415l-49.321-16.727-42.665 73.902 39.081 34.345c-4.92 23.322-4.92 47.416 0 70.743l-39.081 34.345 42.665 73.897 49.321-16.681c17.495 15.785 38.318 27.945 61.23 35.415l10.194 50.984h85.335l10.24-51.031c22.871-7.424 43.689-19.625 61.184-35.41v0.041zM768.005 192c22.63 0 44.334 8.991 60.339 24.991 16.005 16.005 24.991 37.709 24.991 60.339 0 22.636-8.986 44.339-24.991 60.339-16.005 16.005-37.709 24.996-60.339 24.996s-44.339-8.991-60.339-24.996c-16.005-16-24.996-37.704-24.996-60.339 0-22.63 8.991-44.334 24.996-60.339 16-16 37.709-24.991 60.339-24.991v0z" />
<glyph unicode="&#xe923;" glyph-name="right-nav" d="M93.091 448c0 231.357 187.552 418.909 418.909 418.909 231.359 0 418.909-187.552 418.909-418.909 0-231.359-187.55-418.909-418.909-418.909-231.357 0-418.909 187.55-418.909 418.909zM512 960c-282.77 0-512-229.23-512-512 0-282.768 229.23-512 512-512 282.768 0 512 229.232 512 512 0 282.77-229.232 512-512 512zM475.094 667.095c-18.177 18.177-47.648 18.177-65.825 0s-18.177-47.648 0-65.826l153.27-153.269-153.27-153.27c-18.177-18.176-18.177-47.649 0-65.825s47.648-18.176 65.825 0l186.182 186.182c18.176 18.176 18.176 47.649 0 65.825l-186.182 186.182z" />
<glyph unicode="&#xe924;" glyph-name="left-nav" d="M930.909 448c0 231.357-187.55 418.909-418.909 418.909-231.357 0-418.909-187.552-418.909-418.909 0-231.359 187.552-418.909 418.909-418.909 231.359 0 418.909 187.55 418.909 418.909zM512 960c282.768 0 512-229.23 512-512 0-282.768-229.232-512-512-512-282.77 0-512 229.232-512 512 0 282.77 229.23 512 512 512zM548.906 667.095c18.176 18.177 47.649 18.177 65.825 0s18.176-47.648 0-65.826l-153.269-153.269 153.269-153.27c18.176-18.176 18.176-47.649 0-65.825s-47.649-18.176-65.825 0l-186.182 186.182c-18.177 18.176-18.177 47.649 0 65.825l186.182 186.182z" />
<glyph unicode="&#xe925;" glyph-name="reminder" d="M960 211.779l-64 32v76.221c-0.077 45.332-16.179 89.175-45.46 123.781-29.276 34.61-69.847 57.752-114.54 65.339v66.88h-64v-66.88c-44.692-7.587-85.263-30.729-114.54-65.339-29.281-34.606-45.384-78.449-45.46-123.781v-76.221l-64-32v-147.779h192v-64h128v64h192v147.779zM896 128h-384v44.221l64 32v115.779c0 33.946 13.486 66.504 37.489 90.511 24.008 24.003 56.566 37.489 90.511 37.489s66.504-13.486 90.511-37.489c24.003-24.008 37.489-56.566 37.489-90.511v-115.779l64-32v-44.221zM896 768c0 16.974-6.743 33.252-18.744 45.255s-28.283 18.745-45.256 18.745h-128v64h-64v-64h-256v64h-64v-64h-128c-16.974 0-33.252-6.743-45.255-18.745s-18.745-28.281-18.745-45.255v-640c0-16.973 6.743-33.254 18.745-45.256s28.281-18.744 45.255-18.744h128v64h-128v640h128v-64h64v64h256v-64h64v64h128v-192h64v192z" />
<glyph unicode="&#xe926;" glyph-name="preview-window" d="M822.4 662.4l-224 224c-6.4 6.4-12.8 9.6-22.4 9.6h-320c-35.2 0-64-28.8-64-64v-768c0-35.2 28.8-64 64-64h512c35.2 0 64 28.8 64 64v576c0 9.6-3.2 16-9.6 22.4zM576 819.2l179.2-179.2h-179.2v179.2zM768 64h-512v768h256v-192c0-35.2 28.8-64 64-64h192v-512zM320 256h384v-64h-384v64zM320 448h384v-64h-384v64z" />
<glyph unicode="&#xe927;" glyph-name="notification" d="M832 429.248v82.752h-64v-96c0-8.486 3.375-16.623 9.374-22.626l86.626-86.622v-50.752h-704v50.752l86.624 86.622c6.001 6.003 9.374 14.14 9.376 22.626v128c-0.089 44.966 11.69 89.161 34.147 128.118s54.797 71.299 93.754 93.757c38.957 22.458 83.15 34.239 128.116 34.151s89.114-12.040 127.983-34.65v71.52c-30.46 13.487-62.861 22.084-96 25.472v65.632h-64v-65.6c-78.894-8.030-152.008-45.028-205.204-103.84s-82.697-135.259-82.796-214.56v-114.752l-86.624-86.622c-6.001-6.003-9.374-14.14-9.376-22.626v-96c0-8.486 3.372-16.627 9.373-22.626 6.001-6.003 14.141-9.374 22.627-9.374h224v-32c0-42.436 16.857-83.132 46.863-113.139 30.005-30.003 70.701-46.861 113.137-46.861s83.132 16.858 113.139 46.861c30.003 30.007 46.861 70.703 46.861 113.139v32h224c8.486 0 16.627 3.371 22.626 9.374 6.003 5.999 9.374 14.14 9.374 22.626v96c0 8.486-3.375 16.623-9.374 22.626l-86.626 86.622zM608 160c0-25.459-10.116-49.877-28.117-67.883-18.005-18.001-42.423-28.117-67.883-28.117s-49.877 10.116-67.883 28.117c-18.003 18.005-28.117 42.423-28.117 67.883v32h192v-32zM832 576c70.694 0 128 57.308 128 128s-57.306 128-128 128c-70.694 0-128-57.308-128-128s57.306-128 128-128z" />
<glyph unicode="&#xe928;" glyph-name="indication-interest" d="M143.734 324.5v-225.789h226.017v-79.729h-305.751v305.508l79.734 0.010zM828.157 188.186c36.544 55.534 43.018 125.642 17.247 186.931-25.769 61.289-80.384 105.7-145.641 118.436-65.254 12.739-132.562-7.887-179.487-54.986-46.927-47.096-67.287-114.488-54.313-179.694 12.984-65.201 57.605-119.652 118.989-145.185 61.384-25.544 131.461-18.813 186.862 17.948l141.179-140.961 56.346 56.55-141.181 140.961zM662.111 178.826c-31.777-0.056-62.267 12.521-84.762 34.97-22.484 22.438-35.139 52.897-35.156 84.667-0.020 31.767 12.595 62.246 35.062 84.713s52.936 35.082 84.713 35.062c31.767-0.018 62.226-12.672 84.667-35.167 22.438-22.487 35.013-52.984 34.957-84.751 0.059-31.739-12.5-62.218-34.898-84.703-22.41-22.487-52.841-35.149-84.582-35.205v0.415zM369.759 895.995v-79.729h-226.017v-226.017h-79.729v305.751l305.746-0.005zM941.043 896v-305.751h-79.729v226.017h-225.789v79.729l305.518 0.005z" />
<glyph unicode="&#xe929;" glyph-name="investment-approvals" d="M974.108 304.952c-5.765 22.103-20.186 40.364-39.404 50.936-20.186 10.57-42.289 13.453-64.392 6.73l-200.858-63.432c-6.73 6.733-13.453 11.53-22.103 14.413l-151.844 60.549c-42.289 17.295-90.34 20.186-134.543 8.648l-103.793-26.911v14.413c0 14.415-11.53 25.951-25.949 25.951h-141.273c-14.413 0-25.95-11.53-25.95-25.951v-310.415c0-14.413 11.53-25.951 25.95-25.951h140.316c14.413 0 25.949 11.53 25.949 25.951v18.26l320.028-54.781c10.573-1.925 21.143-2.883 30.756-2.883 37.481 0 73.039 11.53 104.753 33.638l231.611 163.377c26.895 19.218 39.391 54.781 30.743 87.457h0.003zM204.312 84.874h-88.421v258.522h88.416l0.005-258.522zM912.602 258.824l-231.611-163.377c-27.868-20.186-62.464-27.866-96.105-22.103l-328.676 56.701v172.027l117.245 30.756c33.641 8.648 70.154 6.73 101.87-6.73l151.844-60.547c3.843-1.925 6.73-4.808 8.648-8.648 1.925-3.843 1.925-7.69 0-11.533-2.883-6.73-9.613-9.613-16.335-8.648l-178.755 28.833c-14.413 1.925-27.868-7.688-29.791-21.143-1.925-14.413 7.688-27.866 21.143-29.791l178.755-28.833c3.84-0.957 6.73-0.957 10.57-0.957 26.911 0 50.936 15.378 61.507 41.321 3.843 7.69 4.808 16.338 5.765 24.986l197.015 61.507c7.69 2.883 16.338 1.925 24.026-1.923 7.69-3.843 12.495-10.573 14.413-18.263 2.883-13.453-1.923-25.948-11.53-33.638l0.003 0.003zM690.609 396.257c137.426 0 249.871 112.443 249.871 249.871 0 137.426-112.443 249.871-249.871 249.871-137.426 0-249.871-112.442-249.871-249.871s111.483-249.871 249.871-249.871zM690.609 844.104c108.593 0 197.975-88.416 197.975-197.975 0-108.6-89.38-197.975-197.975-197.975-109.558 0-197.975 88.417-197.975 197.975 0 109.566 88.417 197.975 197.975 197.975zM645.435 574.049c4.808-4.805 11.53-7.688 18.26-7.688 6.733 0 13.455 2.883 18.263 7.688l108.6 108.6c10.57 10.573 10.57 26.909 0 36.521-10.573 10.572-26.911 10.572-36.524 0l-90.34-90.34-36.521 36.521c-10.57 10.573-26.908 10.573-36.521 0-10.57-10.57-10.57-26.908 0-36.521l54.781-54.781z" />
<glyph unicode="&#xe92a;" glyph-name="doc-view-table" d="M704 128c35.348 0 64 28.652 64 64s-28.652 64-64 64c-35.348 0-64-28.652-64-64s28.652-64 64-64zM952.863 208.671c-19.768 50.371-53.888 93.834-98.125 125-44.242 31.165-96.65 48.666-150.738 50.33-54.088-1.664-106.496-19.164-150.738-50.33-44.235-31.165-78.354-74.629-98.126-125l-7.136-16.671 7.136-16.671c19.772-50.371 53.892-93.834 98.126-125 44.242-31.165 96.65-48.666 150.738-50.33 54.088 1.664 106.496 19.164 150.738 50.33 44.237 31.165 78.356 74.629 98.125 125l7.137 16.671-7.137 16.671zM704 64c-25.318 0-50.063 7.506-71.112 21.571s-37.458 34.058-47.145 57.446c-9.687 23.388-12.221 49.126-7.286 73.953 4.941 24.832 17.132 47.636 35.031 65.541 17.905 17.9 40.709 30.090 65.541 35.031 24.827 4.936 50.565 2.401 73.953-7.286s43.382-26.097 57.446-47.145c14.065-21.048 21.571-45.793 21.571-71.112-0.041-33.935-13.542-66.468-37.535-90.465-23.997-23.992-56.53-37.494-90.465-37.535zM384 63.99h-128v767.999h256v-192c0.051-16.958 6.81-33.208 18.801-45.199s28.242-18.75 45.199-18.801h192v-127.999h64v191.999c0.113 4.206-0.686 8.386-2.345 12.253-1.654 3.867-4.132 7.329-7.255 10.147l-224 224c-2.816 3.125-6.277 5.601-10.148 7.259-3.866 1.658-8.049 2.456-12.252 2.341h-320c-16.958-0.051-33.207-6.81-45.199-18.801s-18.75-28.241-18.801-45.199v-767.999c0.051-16.957 6.81-33.208 18.801-45.199s28.24-18.749 45.199-18.801h128v64zM576 819.189l179.2-179.2h-179.2v179.2z" />
<glyph unicode="&#xe92b;" glyph-name="actions" d="M556.701 894.908c-74.427 5.353-148.948-9.041-216.023-41.727-67.080-32.686-124.338-82.503-165.993-144.415-41.651-61.913-66.214-133.725-71.208-208.177-0.437-6.992 2.032-13.864 6.825-18.977s11.487-8.024 18.496-8.038c7.052 0.037 13.825 2.75 18.956 7.585 5.131 4.838 8.239 11.443 8.694 18.476 7.035 94.901 50.287 183.458 120.807 247.355 70.517 63.899 162.896 98.237 258.025 95.916 95.133-2.321 185.728-41.129 253.041-108.387 67.317-67.259 106.196-157.827 108.592-252.96 2.399-95.122-31.868-187.538-95.707-258.107s-152.371-113.891-247.263-121.004c-7.237-0.505-14.014-3.723-18.981-9.004-4.97-5.281-7.76-12.244-7.826-19.493 0.018-6.824 2.845-13.338 7.815-18.008 4.974-4.67 11.648-7.088 18.458-6.678 107.271 6.777 207.956 54.060 281.673 132.279 73.721 78.219 114.962 181.522 115.383 289.002 0.417 107.476-40.024 211.101-113.13 289.888-73.103 78.787-173.425 126.853-280.631 134.465l-0.004 0.008zM661.771 761.961c-225.024 94.184-440.931-61.447-452.799-271.53-0.324-4.337 1.169-8.613 4.122-11.809 2.954-3.193 7.099-5.018 11.449-5.036h19.496c4.531 0.037 8.889 1.763 12.219 4.835 3.329 3.076 5.394 7.281 5.79 11.798 11.971 177.988 199.593 307.236 390.934 217.292 47.568-22.479 85.921-60.687 108.588-108.171 91.959-195.041-43.966-385.955-226.717-391.993-4.283-0.168-7.684-3.661-7.735-7.943v-25.958c-0.655-4.912 0.885-9.867 4.209-13.542 3.328-3.672 8.104-5.698 13.060-5.526 210.619 11.864 366.46 228.729 270.896 454.283-29.21 69.17-84.304 124.188-153.516 153.296l0.004 0.006zM479.781 472.931l-258.183-64.307c-14.724-3.92-26.277-15.334-30.37-30.011s-0.117-30.424 10.452-41.399l59.54-58.69-181.271-183.914c-13.927-14.175-19.236-34.703-13.924-53.855 5.309-19.149 20.435-34.011 39.674-38.985 19.239-4.977 39.674 0.691 53.601 14.866l181.271 184.66 59.539-58.8c7.223-7.3 16.845-11.728 27.085-12.464s20.4 2.271 28.592 8.459c8.188 6.192 13.857 15.141 15.945 25.194l59.644 258.498c3.408 14.405-0.947 29.546-11.491 39.94-10.547 10.397-25.75 14.53-40.104 10.913v-0.106z" />
<glyph unicode="&#xe92c;" glyph-name="investment" d="M735.996 544c-39.358-0.011-78.007-10.47-112-30.307v142.307c0 76.944-145.137 112-279.998 112-134.862 0-279.999-35.056-279.999-112v-448c0-76.943 145.137-112 279.999-112 85.068 0 191.967 14.83 245.935 54.543 55.53-47.868 130.984-65.518 201.999-47.243 71 18.282 128.556 70.17 154.075 138.902 25.509 68.736 15.755 145.613-26.119 205.791s-110.566 96.044-183.888 96.007h-0.004zM567.998 544c0-14.38-77.012-55.998-224-55.998-146.986 0-223.999 41.618-223.999 55.998v41.333c70.806-29.784 147.225-43.889 223.999-41.333 76.774-2.556 153.194 11.549 224 41.333v-41.333zM343.999 432c76.774-2.556 153.194 11.549 224 41.329v-5.669c-16.377-18.516-29.575-39.625-39.062-62.449-59.344-20.955-122.028-30.855-184.944-29.213-146.986 0-223.999 41.622-223.999 56.002v41.329c70.806-29.78 147.225-43.886 223.999-41.329h0.007zM120 361.329c70.806-29.78 147.225-43.886 223.999-41.329 57.018-0.662 113.868 6.287 169.040 20.656-0.625-6.813-1.046-13.681-1.046-20.656 0.088-10.781 0.951-21.537 2.589-32.187-55.281-16.75-112.834-24.781-170.592-23.812-146.986 0-223.999 41.618-223.999 55.998l0.008 41.329zM343.999 712.003c146.988 0 224-41.619 224-56s-77.012-56-224-56c-146.986 0-223.999 41.619-223.999 56s77.012 56 223.999 56zM120 208.004v41.329c70.806-29.78 147.225-43.886 223.999-41.329 62.723-0.958 125.224 7.739 185.311 25.776 6.075-14.446 13.656-28.215 22.605-41.070-30.961-19.463-103.347-40.708-207.917-40.708-146.986 0-223.999 41.622-223.999 56.002h0.001zM735.996 152.002c-44.295-0.044-86.813 17.426-118.279 48.596-31.47 31.173-49.339 73.523-49.715 117.826-0.373 44.292 16.783 86.938 47.726 118.634l0.157 0.176c39.303 40.269 96.168 58.181 151.453 47.7 55.289-10.481 101.658-47.963 123.494-99.825s16.249-111.214-14.888-158.087c-31.13-46.877-83.672-75.045-139.948-75.019v0zM803.098 290.037c5.069-20.645-0.464-42.459-14.764-58.189-6.524-7.845-14.881-13.952-24.338-17.788v-6.056c0-10.006-5.336-19.248-14-24.251-8.66-4.999-19.335-4.999-27.999 0-8.664 5.003-14 14.245-14 24.251v8.090c-9.37 3.767-18.176 8.81-26.167 14.994-7.863 6.129-11.871 15.978-10.522 25.86 1.353 9.882 7.852 18.3 17.072 22.1 9.216 3.807 19.763 2.417 27.688-3.643 0.516-0.384 22.612-15.59 29.447-7.464 4.18 4.977 3.613 7.245 3.394 7.987l-0.007-0.004c-4.791 8.854-13.034 15.331-22.773 17.887-27.067 8.313-48.406 29.253-57.231 56.163-5.069 20.645 0.461 42.456 14.76 58.185 6.521 7.885 14.877 14.040 24.338 17.927v5.917c0 10.006 5.339 19.251 14 24.251 8.664 4.999 19.339 4.999 28.003 0 8.66-4.999 14-14.245 14-24.251v-8.016c9.373-3.789 18.18-8.858 26.167-15.064 7.899-6.133 11.93-16.018 10.569-25.933-1.364-9.904-7.907-18.344-17.17-22.118-9.267-3.774-19.84-2.322-27.743 3.814-0.113 0.080-22.393 15.554-29.338 7.38-4.18-4.974-3.613-7.245-3.394-7.98 4.795-8.858 13.038-15.331 22.777-17.891 27.067-8.309 48.406-29.253 57.231-56.163v0.004z" />
<glyph unicode="&#xe92d;" glyph-name="download-outlined" d="M505.7 298.998c0.749-0.952 1.704-1.725 2.796-2.258s2.29-0.809 3.504-0.809c1.213 0 2.412 0.276 3.502 0.809 1.096 0.532 2.048 1.306 2.796 2.258l112 141.701c4.101 5.202 0.404 12.901-6.298 12.901h-74.102v338.4c0 4.4-3.599 8-7.997 8h-60.001c-4.4 0-8-3.6-8-8v-338.3h-73.9c-6.7 0-10.4-7.702-6.3-12.899l112-141.804zM877.998 333.998h-59.996c-4.403 0-8.003-3.599-8.003-7.997v-153.999h-595.999v153.999c0 4.398-3.6 7.997-8 7.997h-60c-4.4 0-8-3.599-8-7.997v-198.001c0-17.7 14.3-32 32-32h684.001c17.7 0 32 14.3 32 32v198.001c0 4.398-3.599 7.997-8.003 7.997z" />
<glyph unicode="&#xe92e;" glyph-name="edit-outlined" d="M248.1 217.6c2 0 4 0.2 6 0.502l168.2 29.496c2 0.404 3.9 1.3 5.3 2.801l423.902 423.901c0.927 0.925 1.659 2.024 2.161 3.234s0.763 2.507 0.763 3.816c0 1.31-0.261 2.607-0.763 3.816s-1.234 2.309-2.161 3.234l-166.2 166.3c-1.9 1.9-4.403 2.9-7.101 2.9s-5.202-1-7.101-2.9l-423.899-423.898c-1.5-1.5-2.4-3.302-2.8-5.304l-29.5-168.197c-0.973-5.356-0.626-10.87 1.012-16.061 1.638-5.197 4.517-9.907 8.388-13.737 6.6-6.4 14.9-9.902 23.8-9.902zM315.5 391.997l362.7 362.602 73.298-73.3-362.698-362.6-88.9-15.698 15.6 88.996zM870.4 133.601h-736c-17.7 0-32-14.3-32-32v-36.004c0-4.398 3.6-7.997 8-7.997h784.003c4.398 0 7.997 3.599 7.997 7.997v36.004c0 17.7-14.3 32-32 32z" />
<glyph unicode="&#xe92f;" glyph-name="preview-edit" d="M704 128c35.348 0 64 28.652 64 64s-28.652 64-64 64c-35.348 0-64-28.652-64-64s28.652-64 64-64zM952.863 208.671c-19.768 50.371-53.888 93.834-98.125 125-44.242 31.165-96.65 48.666-150.738 50.33-54.088-1.664-106.496-19.164-150.738-50.33-44.235-31.165-78.354-74.629-98.126-125l-7.136-16.671 7.136-16.671c19.772-50.371 53.892-93.834 98.126-125 44.242-31.165 96.65-48.666 150.738-50.33 54.088 1.664 106.496 19.164 150.738 50.33 44.237 31.165 78.356 74.629 98.125 125l7.137 16.671-7.137 16.671zM704 64c-25.318 0-50.063 7.506-71.112 21.571s-37.458 34.058-47.145 57.446c-9.687 23.388-12.221 49.126-7.286 73.953 4.941 24.832 17.132 47.636 35.031 65.541 17.905 17.9 40.709 30.090 65.541 35.031 24.827 4.936 50.565 2.401 73.953-7.286s43.382-26.097 57.446-47.145c14.065-21.048 21.571-45.793 21.571-71.112-0.041-33.935-13.542-66.468-37.535-90.465-23.997-23.992-56.53-37.494-90.465-37.535zM384 63.99h-128v767.999h256v-192c0.051-16.958 6.81-33.208 18.801-45.199s28.242-18.75 45.199-18.801h192v-127.999h64v191.999c0.113 4.206-0.686 8.386-2.345 12.253-1.654 3.867-4.132 7.329-7.255 10.147l-224 224c-2.816 3.125-6.277 5.601-10.148 7.259-3.866 1.658-8.049 2.456-12.252 2.341h-320c-16.958-0.051-33.207-6.81-45.199-18.801s-18.75-28.241-18.801-45.199v-767.999c0.051-16.957 6.81-33.208 18.801-45.199s28.24-18.749 45.199-18.801h128v64zM576 819.189l179.2-179.2h-179.2v179.2z" />
<glyph unicode="&#xe930;" glyph-name="document-view" d="M416 480v-256l224 128-224 128zM832 64h-640c-16.969 0.015-33.238 6.764-45.236 18.765-11.999 11.996-18.747 28.268-18.764 45.235v448c0.017 16.969 6.765 33.238 18.764 45.236s28.268 18.747 45.236 18.764h640c16.968-0.017 33.239-6.765 45.235-18.764 12.001-11.999 18.749-28.268 18.765-45.236v-448c-0.015-16.968-6.764-33.239-18.765-45.235-11.996-12.001-28.268-18.749-45.235-18.765zM192 576v-448h640v448h-640zM192 768h640v-64h-640v64zM256 896h512v-64h-512v64z" />
<glyph unicode="&#xe931;" glyph-name="chat-messages" d="M597.333 0l-119.467 149.333h-221.867c-11.316 0-22.168 4.497-30.17 12.497s-12.497 18.854-12.497 30.17v464.939c0 11.316 4.495 22.168 12.497 30.17s18.854 12.497 30.17 12.497h682.667c11.315 0 22.17-4.495 30.17-12.497s12.497-18.854 12.497-30.17v-464.939c0-11.315-4.497-22.17-12.497-30.17s-18.854-12.497-30.17-12.497h-221.867l-119.467-149.333zM675.797 234.667h220.203v379.605h-597.333v-379.605h220.203l78.464-98.048 78.464 98.048zM85.333 874.667h725.333v-85.333h-682.667v-469.333h-85.333v512c0 11.316 4.495 22.168 12.497 30.17s18.854 12.497 30.17 12.497z" />
<glyph unicode="&#xe932;" glyph-name="outline-integration" d="M469.334 355.389l-92.587 92.585 92.587 92.589-60.16 60.586-153.174-153.176 153.174-153.17 60.16 60.585zM614.825 294.804l153.175 153.17-153.175 153.176-60.16-60.586 92.59-92.589-92.59-92.585 60.16-60.585zM810.665 832.017h-178.345c-17.92 49.493-64.855 85.333-120.32 85.333-55.466 0-102.4-35.84-120.32-85.333h-178.346c-5.974 0-11.52-0.427-17.067-1.707-13.588-2.851-26.281-8.962-36.984-17.807s-19.096-20.158-24.456-32.966c-4.266-9.814-6.826-20.907-6.826-32.854v-597.333c0-11.52 2.56-23.040 6.826-33.28s10.667-19.2 18.347-27.305c11.52-11.52 26.453-20.055 43.093-23.47 5.547-0.85 11.094-1.28 17.067-1.28h597.331c46.935 0 85.335 38.4 85.335 85.335v597.333c0 46.934-38.4 85.334-85.335 85.334zM512 842.683c17.495 0 32-14.506 32-32s-14.505-32-32-32c-17.494 0-32 14.506-32 32s14.506 32 32 32zM810.665 320.015v-170.665h-597.331v597.333h597.331v-426.668z" />
<glyph unicode="&#xe934;" glyph-name="user-approved" d="M655.168 24.333v-25.6c11.817 0 22.098 8.087 24.881 19.571 2.78 11.487-2.66 23.383-13.166 28.79l-11.715-22.761zM64 24.333l-25.6 0.010c-0.003-6.792 2.693-13.304 7.495-18.109 4.801-4.803 11.314-7.501 18.105-7.501v25.6zM146.656 265.836v0zM359.846 406.205l6.405-24.786h0.003l-6.408 24.786zM614.359 386.721l16.484-19.587c6.794 5.716 10.143 14.548 8.842 23.334-1.3 8.783-7.060 16.269-15.222 19.773l-10.104-23.521zM537.723 194.596v0zM910.433 64.179v0zM565.714 109.565v0zM565.714 328.696v0zM910.433 374.077v0zM893.998 280.049c9.997 9.997 9.997 26.207 0 36.204-9.999 9.997-26.207 9.997-36.204 0l36.204-36.204zM717.85 140.104l-18.102-18.104c9.997-9.997 26.204-9.997 36.204 0.003l-18.102 18.102zM653.164 240.986c-9.997 9.997-26.207 9.994-36.204-0.003s-9.997-26.207 0.003-36.204l36.201 36.206zM627.62 701.217c0-93.44-75.74-169.183-169.185-169.183v-51.2c121.72 0 220.385 98.665 220.385 220.383h-51.2zM458.435 532.035c-93.44 0-169.183 75.745-169.183 169.183h-51.199c0-121.713 98.664-220.383 220.382-220.383v51.2zM289.252 701.217c0 93.436 75.748 169.183 169.183 169.183v51.2c-121.713 0-220.382-98.67-220.382-220.383h51.199zM458.435 870.4c93.44 0 169.185-75.747 169.185-169.183h51.2c0 121.713-98.668 220.383-220.385 220.383v-51.2zM655.168 49.933h-591.168v-51.2h591.168v51.2zM89.6 24.323c0.032 81.759 27.221 161.19 77.295 225.836l-40.477 31.352c-57.018-73.61-87.982-164.060-88.018-257.167l51.2-0.020zM166.894 250.156c50.072 64.635 120.197 110.81 199.358 131.264l-12.81 49.572c-90.145-23.293-170.002-75.878-227.022-149.478l40.475-31.357zM366.254 381.42c79.16 20.462 162.875 14.054 238.001-18.22l20.209 47.043c-85.548 36.751-180.877 44.050-271.025 20.749l12.815-49.572zM597.878 406.308c-62.628-52.7-94.751-133.235-85.594-214.574l50.877 5.727c-7.24 64.32 18.161 128 67.681 169.674l-32.965 39.173zM512.284 191.734c9.157-81.341 58.394-152.704 131.167-190.162l23.432 45.522c-57.549 29.624-96.479 86.054-103.721 150.367l-50.877-5.727zM949.010 219.128c0-51.328-20.388-100.552-56.681-136.85l36.206-36.201c45.893 45.901 71.675 108.142 71.675 173.051h-51.2zM892.332 82.281c-36.298-36.293-85.524-56.681-136.85-56.681v-51.2c64.906 0 127.15 25.782 173.051 71.675l-36.201 36.206zM755.482 25.6c-69.14 0-133.028 36.887-167.596 96.765l-44.342-25.6c43.715-75.72 124.503-122.365 211.937-122.365v51.2zM587.886 122.365c-34.573 59.878-34.573 133.658-0.003 193.531l-44.339 25.603c-43.717-75.717-43.717-169.014 0-244.733l44.342 25.6zM587.886 315.896c34.57 59.878 98.46 96.765 167.596 96.765v51.2c-87.429 0-168.22-46.646-211.937-122.365l44.342-25.6zM755.482 412.662c51.328 0 100.549-20.393 136.85-56.689l36.201 36.209c-45.898 45.891-108.14 71.68-173.051 71.68v-51.2zM892.332 355.976c36.291-36.293 56.678-85.514 56.678-136.847h51.2c0 64.911-25.782 127.155-71.675 173.051l-36.204-36.204zM857.795 316.252l-158.049-158.047 36.206-36.204 158.047 158.047-36.204 36.204zM735.949 158.205l-82.785 82.78-36.201-36.206 82.785-82.78 36.201 36.206z" />
<glyph unicode="&#xe935;" glyph-name="nda" d="M672 431.739v0zM128 616l-38.4 0.225v-0.225h38.4zM216 704v38.401l-0.225-0.001 0.225-38.399zM404.24 704l0.058 38.4h-0.058v-38.4zM439.22 689.28l-27.416-26.888 0.035-0.036 27.38 26.924zM657.521 467.28l27.453 26.848-0.072 0.076-27.382-26.924zM438.4 704c0 21.208-17.192 38.4-38.4 38.4s-38.4-17.192-38.4-38.4h76.8zM400 488h-38.403l0.005-0.458 38.397 0.458zM456 432l-0.458-38.4h0.458v38.4zM672 393.6c21.207 0 38.4 17.193 38.4 38.4s-17.193 38.4-38.4 38.4v-76.8zM352 808l-38.4 0.225v-0.225h38.4zM440 896v38.401l-0.225-0.001 0.225-38.399zM627.999 896l0.056 38.4h-0.056v-38.4zM663.219 881.28l27.382 26.924-0.092 0.094-27.29-27.018zM881.521 659.28l-27.382-26.924 0.061-0.062 27.32 26.985zM662.4 896c0 21.208-17.193 38.4-38.4 38.4s-38.4-17.192-38.4-38.4h76.8zM624 680h-38.405l0.010-0.458 38.395 0.458zM679.997 624l-0.456-38.4h0.456v38.4zM633.6 431.739v-343.736h76.8v343.736h-76.8zM633.6 88.003c0-28.38-21.878-49.603-47.498-49.603v-76.8c69.98 0 124.298 57.58 124.298 126.403h-76.8zM586.102 38.4h-372.102v-76.8h372.102v76.8zM214 38.4c-25.748 0-47.6 21.253-47.6 49.603h-76.8c0-68.854 54.348-126.403 124.4-126.403v76.8zM166.4 88.003v527.997h-76.8v-527.997h76.8zM166.399 615.775c0.077 13.191 5.351 25.819 14.679 35.146l-54.306 54.306c-23.62-23.62-36.977-55.599-37.172-89.002l76.799-0.45zM181.079 650.921c9.327 9.328 21.956 14.602 35.146 14.679l-0.45 76.799c-33.403-0.196-65.383-13.552-89.002-37.172l54.306-54.306zM216 665.6h188.24v76.8h-188.24v-76.8zM404.182 665.6c1.42-0.002 2.825-0.287 4.134-0.838l29.789 70.788c-10.703 4.504-22.194 6.832-33.806 6.85l-0.117-76.8zM408.315 664.762c1.309-0.551 2.495-1.356 3.489-2.37l54.831 53.775c-8.13 8.29-17.829 14.879-28.531 19.382l-29.789-70.788zM411.84 662.356l218.299-222.001 54.764 53.848-218.302 222-54.76-53.848zM630.067 440.433c2.263-2.319 3.533-5.432 3.533-8.673l76.8-0.036c0.010 23.325-9.119 45.727-25.426 62.405l-54.907-53.695zM361.6 704v-216h76.8v216h-76.8zM361.603 487.542c0.296-24.823 10.289-48.543 27.842-66.1l54.306 54.307c-3.375 3.375-5.296 7.936-5.352 12.708l-76.795-0.915zM389.444 421.443c17.553-17.551 41.275-27.546 66.098-27.837l0.915 76.792c-4.772 0.057-9.333 1.978-12.708 5.352l-54.306-54.307zM456 393.6h216v76.8h-216v-76.8zM390.4 704v104h-76.8v-104h76.8zM390.399 807.775c0.077 13.191 5.351 25.819 14.679 35.146l-54.306 54.306c-23.62-23.62-36.977-55.599-37.172-89.002l76.799-0.45zM405.079 842.921c9.327 9.328 21.956 14.602 35.146 14.679l-0.45 76.799c-33.403-0.196-65.383-13.552-89.002-37.172l54.306-54.306zM440 857.6h187.999v76.8h-187.999v-76.8zM627.948 857.6c1.485-0.002 2.954-0.298 4.326-0.871l29.614 70.86c-10.716 4.48-22.216 6.795-33.833 6.811l-0.108-76.8zM632.274 856.729c1.372-0.573 2.611-1.411 3.661-2.467l54.574 54.035c-8.177 8.255-17.9 14.812-28.621 19.292l-29.614-70.86zM635.837 854.356l218.301-222 54.764 53.848-218.301 222-54.764-53.848zM854.2 632.294c2.181-2.206 3.4-5.181 3.4-8.282l76.8-0.025c0.005 23.314-9.175 45.691-25.559 62.278l-54.641-53.971zM857.6 624v-343.997h76.8v343.997h-76.8zM857.6 280.003c0-28.38-21.878-49.603-47.498-49.603v-76.8c69.98 0 124.298 57.58 124.298 126.403h-76.8zM810.102 230.4h-122.102v-76.8h122.102v76.8zM585.6 896v-216h76.8v216h-76.8zM585.605 679.542c0.292-24.823 10.286-48.545 27.837-66.098l54.308 54.306c-3.374 3.375-5.294 7.936-5.356 12.708l-76.79-0.915zM613.443 613.444c17.556-17.553 41.277-27.545 66.099-27.842l0.916 76.795c-4.772 0.057-9.334 1.978-12.708 5.352l-54.308-54.306zM679.997 585.6h216.003v76.8h-216.003v-76.8z" />
<glyph unicode="&#xe936;" glyph-name="delete" d="M322 858h-10c5.5 0 10 4.5 10 10v-10h380.003v10c0-5.5 4.499-10 9.997-10h-9.997v-90h89.997v100c0 44.125-35.872 80-80 80h-400c-44.125 0-80-35.875-80-80v-100h90v90zM952 768h-880c-22.125 0-40-17.875-40-40v-40c0-5.5 4.5-10 10-10h75.5l30.875-653.75c2-42.624 37.25-76.25 79.875-76.25h567.5c42.752 0 77.875 33.498 79.872 76.25l30.88 653.75h75.501c5.498 0 9.997 4.5 9.997 10v40c0 22.125-17.875 40-40 40zM786.125 38.003h-548.25l-30.25 639.997h608.753l-30.253-639.997z" />
<glyph unicode="&#xe937;" glyph-name="users" horiz-adv-x="1280" d="M656.013 436.268c28.454 24.633 51.283 55.1 66.925 89.332s23.738 71.43 23.738 109.068c0 70.724-28.096 138.552-78.106 188.561-50.007 50.010-117.835 78.105-188.559 78.105s-138.552-28.095-188.562-78.105c-50.010-50.010-78.104-117.837-78.104-188.561-0.001-37.638 8.096-74.835 23.74-109.068s38.469-64.699 66.927-89.332c-74.659-33.807-138.002-88.402-182.454-157.253-44.452-68.858-68.134-149.056-68.212-231.014 0-14.144 5.619-27.712 15.621-37.709 10.002-10.003 23.568-15.622 37.713-15.622s27.71 5.619 37.713 15.622c10.002 9.997 15.62 23.565 15.62 37.709 0 84.87 33.715 166.266 93.726 226.272 60.012 60.015 141.405 93.729 226.274 93.729s166.262-33.714 226.275-93.729c60.013-60.006 93.728-141.402 93.728-226.272 0-14.144 5.619-27.712 15.616-37.709 10.003-10.003 23.571-15.622 37.715-15.622s27.712 5.619 37.715 15.622c9.997 9.997 15.616 23.565 15.616 37.709-0.077 81.958-23.757 162.157-68.211 231.014-44.454 68.851-107.795 123.446-182.451 157.253zM480.010 474.668c-31.645 0-62.579 9.384-88.891 26.964s-46.82 42.57-58.93 71.806c-12.109 29.236-15.278 61.407-9.105 92.444s21.412 59.546 43.789 81.923c22.376 22.376 50.885 37.615 81.923 43.789s63.208 3.005 92.444-9.105c29.236-12.11 54.225-32.618 71.806-58.93s26.967-57.246 26.967-88.891c0-42.435-16.86-83.132-46.865-113.137s-70.703-46.863-113.137-46.863zM999.475 457.601c34.131 38.436 56.429 85.917 64.205 136.728s0.698 102.788-20.378 149.672c-21.075 46.884-55.251 86.678-98.413 114.591s-93.478 42.756-144.877 42.743c-14.15 0-27.712-5.619-37.715-15.621s-15.622-23.568-15.622-37.713c0-14.145 5.619-27.711 15.622-37.713s23.565-15.62 37.715-15.62c42.432 0 83.13-16.858 113.133-46.863 30.010-30.006 46.867-70.702 46.867-113.137-0.077-28.013-7.507-55.515-21.549-79.756-14.035-24.241-34.195-44.371-58.451-58.378-7.91-4.561-14.515-11.075-19.181-18.919-4.672-7.844-7.251-16.755-7.488-25.881-0.224-9.054 1.862-18.015 6.061-26.040s10.374-14.847 17.939-19.826l20.8-13.867 6.931-3.733c64.288-30.492 118.528-78.719 156.32-139.007 37.798-60.282 57.581-130.112 57.018-201.261 0-14.144 5.619-27.712 15.616-37.709 10.003-10.003 23.571-15.622 37.715-15.622s27.712 5.619 37.715 15.622c9.997 9.997 15.616 23.565 15.616 37.709 0.435 81.843-20.064 162.438-59.546 234.131-39.488 71.69-96.646 132.093-166.054 175.469z" />
<glyph unicode="&#xe938;" glyph-name="upload-file" horiz-adv-x="960" d="M132.522 391.451l367.76 367.68c37.569 37.231 88.355 58.063 141.248 57.94 52.89-0.124 103.578-21.193 140.973-58.598s58.451-88.1 58.56-140.992c0.109-52.892-20.742-103.672-57.984-141.23l-424.237-424.238c-15.088-14.573-35.297-22.637-56.272-22.458-20.976 0.186-41.041 8.595-55.873 23.43s-23.247 34.899-23.428 55.872c-0.182 20.979 7.881 41.184 22.454 56.275l424.237 424.318c7.29 7.544 11.322 17.648 11.232 28.136-0.096 10.488-4.301 20.52-11.718 27.937-7.411 7.416-17.446 11.623-27.936 11.715-10.486 0.091-20.591-3.94-28.134-11.227l-424.32-424.398c-30.001-30.016-46.852-70.714-46.844-113.152 0.004-21.011 4.146-41.818 12.19-61.229s19.834-37.043 34.694-51.904c14.861-14.854 32.501-26.637 51.916-34.675 19.414-8.032 40.221-12.173 61.233-12.166 42.435 0.006 83.13 16.87 113.132 46.886l424.24 424.238c52.512 52.513 82.016 123.736 82.016 198s-29.504 145.487-82.016 198c-52.512 52.513-123.738 82.014-198.003 82.014-74.261 0-145.484-29.502-197.997-82.014l-367.68-367.6c-3.821-3.69-6.868-8.104-8.964-12.984s-3.2-10.129-3.246-15.441c-0.046-5.311 0.966-10.578 2.977-15.494s4.981-9.382 8.737-13.138c3.756-3.756 8.222-6.726 13.138-8.737s10.183-3.023 15.494-2.977c5.311 0.046 10.56 1.149 15.441 3.245s9.293 5.144 12.984 8.964z" />
<glyph unicode="&#xe939;" glyph-name="edit" horiz-adv-x="1081" d="M1013.561 753.936l-185.526 186.469c-12.26 12.197-28.848 19.045-46.143 19.045s-33.883-6.847-46.143-19.045l-657.698-656.751-60.049-259.157c-2.071-9.478-2-19.291 0.208-28.735s6.498-18.273 12.556-25.845c6.058-7.578 13.731-13.699 22.459-17.926s18.289-6.451 27.987-6.508c4.518-0.461 9.072-0.461 13.59 0l262.005 60.046 656.753 656.119c12.197 12.26 19.041 28.85 19.041 46.144s-6.844 33.884-19.041 46.143zM325.202 62.418l-245.57-51.513 55.941 240.828 492.088 490.193 189.633-189.63-492.092-489.878zM859.642 598.124l-189.628 189.629 109.983 109.353 186.47-189.629-106.826-109.353z" />
<glyph unicode="&#xe93a;" glyph-name="notification-indicator" horiz-adv-x="931" d="M930.909 122.182h-930.909v93.091h46.545v324.375c0 232.169 187.578 420.352 418.909 420.352s418.909-188.183 418.909-420.352v-324.375h46.545v-93.091zM139.636 215.273h651.636v324.375c0 180.736-145.873 327.261-325.818 327.261s-325.818-146.525-325.818-327.261v-324.375zM349.091 75.636h232.727c0-30.86-12.26-60.458-34.081-82.283-21.825-21.821-51.423-34.081-82.283-34.081s-60.459 12.26-82.282 34.081c-21.822 21.825-34.082 51.423-34.082 82.283z" />
<glyph unicode="&#xe93b;" glyph-name="issuer-data" horiz-adv-x="910" d="M597.333 779.861h142.222l-71.111-94.815-71.111 94.815zM123.259 922.083h663.702c52.622 0 94.817-42.666 94.817-94.815v-758.518c0-52.622-42.194-94.817-94.817-94.817h-663.702c-52.148 0-94.815 42.194-94.815 94.817v758.518c0 52.148 42.667 94.815 94.815 94.815zM123.259 827.269v-189.629h663.702v189.629h-663.702zM123.259 68.75h663.702v474.074h-663.702v-474.074zM218.074 448.009h474.076v-94.814h-474.076v94.814zM218.074 258.378h474.076v-94.811h-474.076v94.811z" />
<glyph unicode="&#xe93c;" glyph-name="user-profile" d="M810.69 661.357h213.336v-85.331h-213.336v85.331zM725.358 448.026h298.668v-85.336h-298.668v85.336zM853.358 234.69h170.668v-85.332h-170.668v85.332zM85.357 21.358c0 90.525 35.962 177.346 99.974 241.357 64.012 64.015 150.832 99.975 241.359 99.975 90.529 0 177.346-35.961 241.36-99.975 64.011-64.011 99.975-150.832 99.975-241.357h-85.336c0 67.895-26.971 133.010-74.979 181.018-48.011 48.011-113.126 74.982-181.021 74.982s-133.010-26.971-181.019-74.982c-48.009-48.007-74.981-113.123-74.981-181.018h-85.334zM426.69 405.358c-141.439 0-255.999 114.56-255.999 255.999s114.56 256 255.999 256c141.44 0 256-114.56 256-256s-114.56-255.999-256-255.999zM426.69 490.69c94.296 0 170.668 76.376 170.668 170.667 0 94.294-76.372 170.667-170.668 170.667-94.293 0-170.666-76.373-170.666-170.667 0-94.291 76.373-170.667 170.666-170.667z" />
<glyph unicode="&#xe93d;" glyph-name="Vector" horiz-adv-x="1164" d="M449.935 929c-57.608 0-112.857-22.885-153.592-63.62s-63.62-95.984-63.62-153.592c0-57.608 22.885-112.857 63.62-153.592s95.984-63.62 153.592-63.62c57.61 0 112.855 22.885 153.592 63.62s63.623 95.984 63.623 153.592c0 57.608-22.886 112.857-63.623 153.592s-95.981 63.62-153.592 63.62zM449.935 820.394c28.803 0 56.428-11.442 76.796-31.81s31.809-47.992 31.809-76.796c0-28.804-11.441-56.428-31.809-76.796s-47.993-31.81-76.796-31.81c-28.804 0-56.428 11.443-76.796 31.81s-31.81 47.992-31.81 76.796c0 28.804 11.442 56.428 31.81 76.796s47.992 31.81 76.796 31.81zM830.059 494.576c-8.69 0-13.033-4.345-13.033-13.030l-14.122-68.422c-11.944-9.775-29.324-18.465-42.356-27.155l-69.506 27.155c-4.343 0-13.033 0-17.375-5.432l-52.131-95.572c-4.347-4.347-4.347-13.033 4.343-17.38l56.474-44.525v-54.305l-56.474-44.53c-4.343-4.343-8.69-13.033-4.343-17.375l52.131-95.572c4.343-5.432 13.033-5.432 17.375-5.432l69.506 27.15c13.033-8.685 30.413-17.375 42.356-27.15l14.122-68.422c0-8.69 4.343-13.033 13.033-13.033h108.605c4.343 0 13.033 4.343 13.033 13.033l8.69 68.422c17.375 9.775 34.751 18.465 47.784 27.15l66.253-27.15c7.601 0 16.291 0 16.291 5.432l56.474 95.572c4.343 4.343 0 13.033-4.343 17.375l-56.478 44.53v54.305l56.478 44.525c4.343 4.347 8.685 13.033 4.343 17.38l-56.474 95.572c0 5.432-8.69 5.432-16.291 5.432l-66.253-27.155c-13.033 8.69-30.408 17.38-47.784 27.155l-8.69 68.422c0 8.685-8.69 13.030-13.033 13.030h-108.605zM449.935 440.273c-144.989 0-434.424-72.225-434.424-217.214v-162.909h525.109c-15.202 32.042-26.065 66.793-31.493 103.177h-390.441v59.732c0 34.755 169.968 114.036 331.248 114.036 23.353 0 47.245-2.169 70.596-5.427 10.859 34.751 25.521 67.333 44.525 97.201-42.356 7.061-82.539 11.404-115.122 11.404zM886.533 304.514c43.441 0 79.281-35.84 79.281-83.624 0-43.446-35.84-79.286-79.281-79.286-47.788 0-83.628 35.84-83.628 79.286 0 47.784 35.84 83.624 83.628 83.624z" />
<<<<<<< HEAD
<glyph unicode="&#xe93e;" glyph-name="eye" d="M512 672v0c288 0 416-224 416-224s-128-224-416-224c-288 0-416 224-416 224s128 224 416 224zM512 320c70.692 0 128 57.308 128 128s-57.308 128-128 128c-70.692 0-128-57.308-128-128s57.308-128 128-128v0zM512 352v0c-53.019 0-96 42.981-96 96s42.981 96 96 96c53.019 0 96-42.981 96-96s-42.981-96-96-96zM512 416c17.673 0 32 14.327 32 32s-14.327 32-32 32c-17.673 0-32-14.327-32-32s14.327-32 32-32v0z" />
=======
<glyph unicode="&#xe93e;" glyph-name="checkmark" d="M0 409.6l102.4 102.4 256-256 563.2 563.2 102.4-102.4-665.6-665.6z" />
>>>>>>> 08933a6a16b947e702eabcd1b42c54bdc8cd279e
</font>
</defs>
</svg>
